<svg width="720" height="585" viewBox="0 0 720 585" fill="none" xmlns="http://www.w3.org/2000/svg">
<path d="M398.963 552.222C380.057 547.278 365.782 558.034 352.057 554.942C341.108 552.477 335.406 534.497 320.695 529.403C324.192 526.052 328.27 521.861 330.219 518.815C334.004 512.895 339.439 501.053 330.219 500.586C323.583 500.25 318.413 518.197 316.037 528.295C313.859 528 311.501 527.977 308.931 528.286C311.969 512.395 317.889 481.639 319.338 475.733C321.307 467.692 313.032 440.886 303.275 470.97C296.431 492.068 301.076 516.454 304.462 529.135C301.789 529.834 299.269 530.842 296.857 532.068C288.797 502.198 263.146 417.045 235.345 427.628C205.033 439.161 269.973 496.409 286.35 538.851C272.97 548.922 261.215 561.153 240.893 552.222C186.889 528.481 182.605 581.897 182.605 581.897L423.943 582.029C423.943 582.029 417.872 557.162 398.963 552.222Z" fill="#ACD29A"/>
<path d="M333.312 360.017C333.558 363.785 336.846 363.649 340.56 362.745C344.273 361.842 343.314 363.426 348.537 363.263C353.757 363.1 355.502 360.203 355.728 358.977C355.933 357.892 353.399 357.12 350.687 356.203C350.346 356.089 350.005 355.967 349.661 355.849C346.605 354.759 344.519 351.183 341.86 348.105C339.338 345.189 337.64 331.826 337.64 331.826L330.217 331.755C330.217 331.755 332.549 343.839 333.765 348.042C334.478 350.514 333.718 353.688 333.477 356.067C333.348 357.361 333.223 358.686 333.312 360.017Z" fill="#FFB07B"/>
<path d="M340.56 362.745C344.273 361.842 343.314 363.426 348.537 363.263C353.758 363.1 355.502 360.203 355.729 358.977C355.933 357.892 353.4 357.12 350.687 356.203L350.657 356.285C350.657 356.285 347.357 359.395 343.043 358.927C339.528 358.546 335.904 356.362 333.477 356.067C333.348 357.361 333.223 358.686 333.312 360.017C333.558 363.785 336.846 363.649 340.56 362.745Z" fill="#365DA4"/>
<path d="M275.267 359.417C275.429 363.199 278.715 363.268 282.447 362.591C286.18 361.915 285.185 363.44 290.408 363.594C295.628 363.753 297.437 360.961 297.695 359.753C297.921 358.677 295.41 357.756 292.72 356.671C292.382 356.539 292.044 356.394 291.705 356.253C288.674 354.977 286.672 351.277 284.086 348.039C281.637 344.97 283.653 332.244 283.653 332.244L278.018 327.924C278.018 327.924 277.244 341.04 276.824 347.674C276.654 350.391 275.821 353.12 275.527 355.486C275.368 356.77 275.211 358.083 275.267 359.417Z" fill="#FFB07B"/>
<path d="M282.447 362.591C286.18 361.915 285.185 363.44 290.408 363.594C295.628 363.753 297.437 360.961 297.695 359.753C297.921 358.677 295.41 357.756 292.72 356.67L292.69 356.752C292.69 356.752 289.317 359.658 285.017 358.922C281.514 358.328 277.943 355.926 275.527 355.485C275.368 356.77 275.211 358.083 275.267 359.417C275.429 363.199 278.715 363.268 282.447 362.591Z" fill="#365DA4"/>
<path d="M287.923 170.544C287.923 170.544 286.362 182.812 284.799 245.031C284.799 245.031 281.9 256.552 279.797 270.638C277.694 284.724 276.212 343.5 276.212 343.5C276.212 343.5 277.051 345.463 279.596 345.71C281.673 345.913 283.292 344.433 283.292 344.433C283.292 344.433 297.908 267.451 305.021 237.564C312.138 207.674 316.307 165 316.307 165L287.923 170.544Z" fill="#2B478B"/>
<path d="M305.502 175.797C305.502 175.797 306.654 188.183 318.453 247.433C318.453 247.433 318.19 259.87 319.222 274.267C320.254 288.664 332.199 345.347 332.199 345.347C332.199 345.347 333.784 346.242 336.163 345.222C338.375 344.274 340.111 342.113 340.111 342.113C340.111 342.113 335.532 261.096 335.833 229.057C336.135 197.018 330.946 154.64 330.946 154.64L305.502 175.797Z" fill="#2B478B"/>
<path d="M326.399 4.20384C324.548 2.2924 322.275 1.91555 320.673 1.93825C321.106 1.28445 321.923 1.0983 321.923 1.0983C320.938 0.775948 318.682 2.19248 318.682 2.19248C305.185 -7.53723 302.006 25.1933 302.062 32.8617C302.112 40.5302 301.878 49.3337 294.795 55.631C280.862 68.0258 291.543 92.5022 291.543 92.5022C289.035 104.189 298.321 118.504 298.321 118.504C298.162 112.298 315.707 72.7613 325.166 63.7399C327.559 58.5912 328.641 49.2429 328.723 48.5028C328.107 55.9397 327.193 60.0623 326.419 62.3642C334.53 51.4041 331.3 9.2662 326.399 4.20384Z" fill="#C65447"/>
<path d="M323.458 59.5037C323.506 59.54 319.035 63.3129 315.668 61.8192C312.503 60.4163 310.434 53.7512 310.479 53.7376C311.818 53.3063 312.207 50.3143 312.176 37.4609L312.783 37.6561L322.605 40.8161L322.972 40.9296C322.972 40.9296 322.74 46.1372 322.731 51.0452C322.728 52.0804 322.74 53.1019 322.762 54.0599C322.829 56.9067 323.025 59.1722 323.458 59.5037Z" fill="#FFB07B"/>
<path d="M322.731 51.0452C322.728 52.0804 322.739 53.1019 322.762 54.0599C317.049 53.6876 313.756 43.0771 312.512 38.4234L322.605 40.8161L322.971 40.9296C322.971 40.9296 322.739 46.1372 322.731 51.0452Z" fill="#EA8E50"/>
<path d="M311.731 35.8537C311.731 35.8537 308.742 28.1898 308.027 21.6337C307.512 16.9527 308.98 -0.390915 319.717 2.10621C319.717 2.10621 322.835 2.60563 325.765 5.8201C328.097 8.37625 331.461 13.8926 327.697 29.0297L326.721 34.142L311.731 35.8537Z" fill="#C65447"/>
<path d="M323.573 48.6389C323.573 48.6389 310.196 45.7695 311.427 32.2714C312.657 18.7733 311.757 9.31147 320.349 10.5737C328.942 11.8358 330.127 17.384 330.393 22.0514C330.656 26.7187 327.082 49.0385 323.573 48.6389Z" fill="#FFB07B"/>
<path d="M326.457 11.7134C326.457 11.7134 321.351 26.6644 315.529 27.6451C309.707 28.6303 307.501 25.602 307.501 25.602C307.501 25.602 312.311 21.0981 314.092 11.6317C314.092 11.6317 324.394 3.5138 326.457 11.7134Z" fill="#C65447"/>
<path d="M325.433 12.7802C325.433 12.7802 327.837 16.9754 328.187 20.5712C328.537 24.1716 328.187 31.3179 329.479 31.386C329.479 31.386 333.218 21.2885 330.684 14.451C327.997 7.20478 325.433 12.7802 325.433 12.7802Z" fill="#C65447"/>
<path d="M414.26 196.162C411.452 186.508 403.65 178.522 397.08 178.522C392.226 178.517 387.944 181.209 384.632 185.588C382.734 188.095 379.88 186.441 379.366 182.565L373.61 139.162C372.773 132.835 368.935 128.811 365.035 130.171L271.95 162.702C268.142 164.034 265.719 170.124 266.539 176.309L286.55 327.292C287.125 331.611 289.075 334.869 291.491 336.121L290.269 336.683H293.885L293.914 336.675C294.355 336.654 294.801 336.572 295.251 336.415L297.276 335.707L321.169 327.357C324.523 326.186 325.88 319.6 323.63 315.401C321.452 311.346 319.885 306.322 319.22 300.631C317.34 284.595 323.446 268.711 333.148 264.442C343.941 259.694 354.84 270.634 357.163 288.157C358.036 294.749 357.569 301.302 356.057 307.067C355.47 309.307 355.955 311.633 356.962 312.959L355.57 314.063L358.801 314.06V314.059C359.04 314.069 359.288 314.036 359.545 313.946L388.07 303.977C391.972 302.614 394.45 296.377 393.613 290.047L387.895 246.915C387.366 242.923 389.608 239.424 392.042 240.441C394.859 241.615 397.883 241.774 400.915 240.714C412.853 236.542 419.832 215.329 414.26 196.162Z" fill="#D86713"/>
<path d="M393.792 178.525C388.936 178.52 384.655 181.208 381.342 185.589C379.449 188.098 376.591 186.446 376.075 182.568L370.325 139.169C369.487 132.839 365.646 128.815 361.748 130.175L268.662 162.706C264.854 164.038 262.43 170.128 263.251 176.308L283.263 327.294C284.115 333.714 288.008 337.798 291.961 336.416L317.88 327.359C321.234 326.188 322.594 319.602 320.341 315.403C318.164 311.347 316.599 306.324 315.933 300.633C314.051 284.598 320.156 268.713 329.86 264.445C340.655 259.696 351.553 270.636 353.875 288.159C354.75 294.751 354.281 301.304 352.768 307.069C351.785 310.815 353.806 314.804 356.258 313.948L384.783 303.979C388.681 302.616 391.163 296.379 390.322 290.049L384.609 246.916C384.075 242.925 386.319 239.427 388.754 240.443C391.571 241.618 394.592 241.777 397.629 240.716C409.566 236.544 416.543 215.331 410.969 196.165C408.163 186.512 400.363 178.525 393.792 178.525Z" fill="#F1A34F"/>
<path d="M359.73 121.124C359.73 121.124 365.538 122.667 367.059 128.797C368.58 134.93 366.455 139.08 365.638 139.067C364.822 139.053 363.253 138.072 362.52 134.89C361.785 131.711 359.73 121.124 359.73 121.124Z" fill="#FFB07B"/>
<path d="M279.797 148.479C279.797 148.479 286.314 148.465 288.66 154.721C291.003 160.978 289.144 166.14 288.249 166.363C287.354 166.585 285.531 165.972 284.377 162.712C283.222 159.452 279.797 148.479 279.797 148.479Z" fill="#FFB07B"/>
<path d="M359.892 128.238C359.316 128.038 356.789 127.557 353.576 126.735C347.657 125.228 339.408 122.572 336.64 118.427C335.89 117.301 334.143 111.108 332.328 104.007C330.494 119.725 330.39 131.784 330.877 140.964L290.881 154.939C294.309 143.684 299.619 129.723 298.623 118.427C298.254 114.241 296.839 108.493 296.311 102.037C296.269 101.483 296.23 100.924 296.199 100.361C290.59 107.862 284.111 116.134 283.955 117.787C283.698 120.561 288.065 151.262 288.065 151.262C286.98 155.316 282.269 154.463 282.269 154.463C277.856 149.346 271.364 120.343 271.884 113.918C272.404 107.494 288.499 70.877 292.394 62.128C296.241 53.4789 310.289 53.6968 310.627 53.7013H310.63C310.633 53.7013 310.633 53.7013 310.636 53.7013C321.806 64.5933 322.813 55.5401 322.813 55.5401C322.813 55.5401 332.893 58.6502 334.624 63.4855C336.357 68.3208 343.954 104.983 344.491 106.273C345.615 108.974 363.978 119.775 364.308 122.903C364.64 126.032 361.539 128.806 359.892 128.238Z" fill="#80BDCC"/>
<path d="M304.826 150.09L290.881 154.939C294.354 143.711 298.917 129.732 297.919 118.504C297.547 114.313 296.708 109.355 296.305 102.867C296.266 102.245 296.199 100.361 296.199 100.361C296.199 100.361 306.076 112.983 306.249 126.64C306.341 133.727 305.578 142.994 304.826 150.09Z" fill="#5F9AA8"/>
<path d="M353.944 126.817C347.955 125.31 339.603 122.654 336.802 118.508C336.044 117.378 334.274 111.181 332.437 104.071C332.437 104.071 331.794 92.6428 333.634 93.0696C335.473 93.4964 338.18 113.764 340.112 115.044C341.84 116.193 351.397 122.15 353.944 126.817Z" fill="#5F9AA8"/>
<path d="M649.007 562.188C648.163 566.81 644.262 569.889 643.738 575.537C643.483 578.293 642.851 580.432 642.046 581.902H629.91C630.031 580.818 630.564 579.65 632.14 579.092C635.512 577.894 636.781 571.26 636.577 565.099C636.487 562.52 636.53 559.574 636.608 557.026C636.712 553.498 636.889 550.729 636.889 550.729L644.054 547.991L644.808 549.562L645.526 551.074C645.526 551.074 649.847 557.571 649.007 562.188Z" fill="#2C3A64"/>
<path d="M592.497 581.902H567.947C568.5 580.844 569.444 579.823 571.04 579.4C574.819 578.406 581.361 574.847 582.822 567.001C582.87 566.751 582.909 566.493 582.945 566.23C584.104 557.848 592.533 568.8 592.533 568.8C592.533 568.8 592.561 569.135 592.601 569.703C592.748 572.064 593.074 578.466 592.497 581.902Z" fill="#2C3A64"/>
<path d="M572.045 359.809C572.045 359.809 573.324 385.742 574.83 416.915C576.874 459.262 579.33 511.279 579.574 521.131C579.998 538.244 581.683 565.612 581.683 565.612C581.683 565.612 585.682 572.114 593.696 569.376C593.696 569.376 600.83 530.303 602.87 488.964C602.902 488.283 602.931 487.602 602.967 486.921C604.861 444.834 607.809 356.217 607.809 356.217L572.045 359.809Z" fill="#35488B"/>
<path d="M572.045 359.809C572.045 359.809 573.324 385.743 574.83 416.916L602.87 488.964C602.902 488.283 602.931 487.602 602.967 486.921C604.861 444.834 607.809 356.217 607.809 356.217L572.045 359.809Z" fill="#2C3A64"/>
<path d="M577.892 362.885C577.892 362.885 600.967 456.809 616.137 500.945C631.311 545.085 636.053 557.403 636.053 557.403C636.053 557.403 644.746 551.755 645.533 547.905C645.533 547.905 639.732 462.693 629.572 441.922C623.831 430.185 617.083 394.962 616.769 382.645C616.455 370.327 614.717 345.949 614.717 345.949L577.892 362.885Z" fill="#35488B"/>
<path d="M589.724 217.911C588.697 208.075 588.664 202.245 588.664 202.245L600.37 186.926C599.939 207.991 608.251 218.12 608.251 218.12C608.251 218.12 592.649 230.589 583.632 225.971C583.632 225.971 585.853 221.363 589.724 217.911Z" fill="#935C2F"/>
<path d="M585.91 201.896C585.91 201.896 600.805 205.913 602.203 190.815C603.601 175.716 606.466 166.066 597.013 162.862C587.564 159.659 585.179 164.969 583.96 169.824C582.737 174.68 582.074 200.461 585.91 201.896Z" fill="#A16D3C"/>
<path d="M533.6 233.022L530.428 229.835C530.428 229.835 526.476 220.358 519.723 226.246C519.723 226.246 517.051 229.014 518.845 231.333C520.642 233.652 520.157 232.342 522.642 235.701C525.13 239.059 528.345 240.259 530.425 238.407L533.087 237.999L533.6 233.022Z" fill="#A16D3C"/>
<path d="M529.841 234.013C530.655 229.864 531.043 229.498 531.043 229.498C531.043 229.498 556.687 234.417 559.105 234.708C561.519 234.999 595.096 223.767 595.096 223.767L610.945 255.023C610.945 255.023 564.207 257.884 558.091 256.954C547.985 255.416 529.652 240.135 529.652 240.135C529.652 240.135 529.198 237.271 529.841 234.013Z" fill="#D3782F"/>
<path d="M616.473 350.749C616.518 352.362 614.472 354.133 613.581 354.782C606.89 359.653 600.656 363.041 593.614 364.139C585.256 365.533 575.385 362.482 571.998 362.554C571.635 362.554 571.321 362.336 571.053 361.969C570.826 361.674 570.645 345.103 570.826 324.21C570.826 323.404 570.826 322.521 570.871 321.714V321.424C570.884 319.248 570.904 317.037 570.933 314.805C571.016 308.698 571.156 302.43 571.321 296.2C571.564 287.016 571.903 277.99 572.369 269.994C572.856 261.643 573.47 254.41 574.254 249.28C576.061 237.476 580.215 229.702 584.007 223.983L587.121 219.515C590.24 220.539 593.536 220.245 596.832 217.608C600.401 214.748 604.283 211.668 604.914 212.402C609.728 218.244 612.966 231.507 614.629 248.363C615.524 257.435 615.957 267.545 615.933 278.102C615.924 282.151 615.846 286.261 615.706 290.409C614.901 312.671 615.726 331.973 616.197 343.191C616.333 346.417 616.444 348.982 616.473 350.749Z" fill="#E69D43"/>
<path d="M537.302 144.942L443.117 120.654C439.106 119.621 435.346 124.056 434.71 130.559L430.541 173.185C430.346 175.16 430.659 180.708 430.659 180.708L434.051 181.529C434.246 181.597 434.441 181.645 434.64 181.671C435.254 181.751 435.895 181.627 436.535 181.251C439.658 179.416 443.117 178.858 446.634 179.906C456.55 182.858 463.489 197.879 462.429 214.156C461.255 232.261 451.012 244.848 440.081 242.03C435.968 240.969 432.362 237.884 429.592 233.5C429.055 232.65 428.407 232.201 427.756 232.092L424.202 231.226L419.779 283.224C419.15 289.637 421.844 295.661 425.795 296.68L452.701 303.618C455.192 304.26 456.395 308.93 454.927 312.26C453.231 316.109 452.046 320.641 451.557 325.633C449.636 345.267 459.324 363.539 472.382 362.018C478.953 361.255 486.377 352.303 488.758 342.326C490.52 334.958 490.52 327.484 489.196 320.868C488.438 317.085 490.424 313.346 492.845 313.97L519.917 320.951C523.865 321.97 527.577 317.599 528.203 311.188L543.177 158.084C543.788 151.821 541.161 145.938 537.302 144.942Z" fill="#4A75CB"/>
<path d="M605.254 247.912C605.254 247.912 598.035 302.619 570.932 314.806C571.018 308.7 571.156 302.431 571.322 296.201C571.565 287.017 571.898 277.991 572.364 269.995C572.851 269.59 573.301 269.274 573.719 269.052C582.914 264.127 605.254 247.912 605.254 247.912Z" fill="#D3782F"/>
<path d="M485.272 341.473C487.031 334.104 487.035 326.631 485.711 320.015C484.954 316.233 486.94 312.494 489.361 313.117L516.433 320.099C520.38 321.117 524.089 316.745 524.714 310.335L539.693 157.231C540.304 150.969 537.674 145.085 533.818 144.091L439.63 119.801C435.625 118.769 431.865 123.204 431.228 129.706L427.058 172.333C426.521 177.847 429.82 182.299 433.053 180.398C436.173 178.563 439.637 178.005 443.153 179.053C453.069 182.005 460.004 197.027 458.947 213.304C457.773 231.409 447.527 243.995 436.598 241.177C432.486 240.116 428.883 237.032 426.107 232.647C424.308 229.798 421.279 231.419 420.884 235.452L416.297 282.371C415.671 288.784 418.364 294.808 422.31 295.827L449.217 302.765C451.708 303.407 452.912 308.077 451.445 311.407C449.748 315.257 448.562 319.787 448.076 324.781C446.152 344.414 455.841 362.686 468.896 361.165C475.469 360.402 482.895 351.45 485.272 341.473Z" fill="#699DEE"/>
<path d="M533.711 268.293L529.837 267.253C529.837 267.253 525.423 256.879 517.729 262.699C517.729 262.699 514.676 265.47 516.694 268.065C518.713 270.659 518.174 269.229 520.97 272.979C523.766 276.73 527.406 278.227 529.768 276.394L532.788 276.139L533.711 268.293Z" fill="#A16D3C"/>
<path d="M530.751 271.488C530.875 266.861 532.394 266.367 532.394 266.367C532.394 266.367 561.731 263.216 564.26 262.42C566.79 261.622 590.153 230.19 590.153 230.19C590.153 230.19 599.19 217.003 605.521 221.453C611.023 225.319 612.744 232.948 613.023 239.963C613.352 248.323 610.445 256.138 605.772 259.683C595.281 267.641 574.295 283.262 569.516 284.609C558.882 287.609 531.54 277.995 531.54 277.995C531.54 277.995 530.653 275.122 530.751 271.488Z" fill="#E69D43"/>
<path d="M583.956 169.825C583.956 169.825 577.912 162.547 581.855 151.238C581.855 151.238 586.608 153.798 593.362 151.238C600.12 148.677 606.164 152.305 606.952 156.145C606.952 156.145 609.58 157.853 609.845 164.253C610.107 170.654 602.2 190.816 602.2 190.816C602.2 190.816 600.513 187.403 600.97 185.056C601.432 182.709 602.879 177.481 601.105 177.481C599.332 177.481 598.739 181.75 598.016 180.042C597.297 178.335 598.609 171.187 596.508 170.014C594.404 168.84 586.321 171.983 583.956 169.825Z" fill="#2C3A64"/>
<path d="M378.502 576.454L351.877 380.166H359.206C360.945 380.166 362.365 377.86 362.365 375.036V368.407C362.365 365.588 360.945 363.281 359.206 363.281H266.238C264.502 363.281 263.081 365.588 263.081 368.407V375.036C263.081 377.86 264.502 380.166 266.238 380.166H275.675L249.051 576.454C248.693 579.092 249.724 581.73 251.343 582.311C252.965 582.896 254.584 581.212 254.942 578.574L281.854 380.166H345.698L372.61 578.574C372.968 581.212 374.587 582.896 376.206 582.311C377.828 581.73 378.859 579.092 378.502 576.454Z" fill="#C3E0F4"/>
<path d="M555.065 456.246C545.207 440.887 509.731 537.812 509.731 537.812C509.731 537.812 564.918 471.611 555.065 456.246Z" fill="#ACD29A"/>
<path d="M553.88 501.055C545.155 495.389 517.274 543.115 510.994 554.134C506.192 553.099 500.919 552.427 495.145 552.259C450.997 550.979 430.97 583.446 430.97 583.446L554.127 584.127C554.127 584.127 543.216 561.634 512.267 554.42C519.832 548.622 542.197 531.728 550.333 528.482C560.187 524.546 563.733 507.451 553.88 501.055Z" fill="#ACD29A"/>
<path d="M519.144 403.776H492.561C489.12 403.776 486.933 409.765 488.594 414.65C490.199 419.372 484.55 460.274 472.644 461.341C461.446 462.344 452.185 447.839 452.185 429.869C452.185 423.108 453.496 416.843 455.726 411.712C457.176 408.375 455.715 403.776 453.203 403.776H423.943C419.945 403.776 416.704 409.038 416.704 415.53C416.704 415.53 414.049 466.522 411.795 464.692C409.472 462.808 406.881 461.659 404.145 461.432V461.428H404.116C403.791 461.401 403.462 461.387 403.13 461.387C402.801 461.387 397.985 461.251 397.985 461.251L397.252 524.264L401.436 524.337C405.413 524.142 408.865 523.538 411.937 521C414.117 519.193 416.704 521.79 416.704 525.767V570.279C416.704 576.767 419.945 582.029 423.939 582.029H519.412C523.318 582.029 526.483 576.89 526.483 570.547V415.694C526.483 409.111 523.196 403.776 519.144 403.776Z" fill="#D86713"/>
<path d="M393.666 523.528C398.426 525.195 402.97 524.023 406.787 520.863C408.969 519.056 411.558 521.657 411.558 525.635V570.143C411.558 576.635 414.798 581.898 418.793 581.898H514.264C518.17 581.898 521.336 576.758 521.336 570.415V415.561C521.336 408.978 518.05 403.639 513.995 403.639H487.412C483.974 403.639 481.785 409.627 483.449 414.517C485.054 419.239 485.936 424.701 485.851 430.503C485.61 446.866 477.564 460.347 467.495 461.209C456.301 462.163 447.036 447.706 447.036 429.736C447.036 422.976 448.35 416.71 450.581 411.58C452.03 408.243 450.567 403.639 448.056 403.639H418.796C414.798 403.639 411.558 408.906 411.558 415.398V459.634C411.558 463.729 408.905 466.389 406.649 464.56C404.043 462.444 401.1 461.25 397.983 461.25C385.744 461.25 376.15 479.656 379.121 500.355C380.619 510.775 387.224 521.276 393.666 523.528Z" fill="#F1A34F"/>
<path d="M117.239 582.765L134.397 582.969C134.397 582.969 133.8 576.227 122.25 574.488C117.772 554.293 104.617 499.96 93.1932 502.525C81.9142 505.063 108.627 554.91 119.494 574.293C117.956 574.297 116.523 574.497 115.2 574.842C112.582 566.379 107.392 554.416 99.0611 554.96C90.1955 555.542 102.274 568.69 110.589 576.763C106.377 579.214 104.103 582.61 104.103 582.61L117.044 582.765C117.196 582.896 117.279 582.969 117.279 582.969C117.279 582.969 117.265 582.896 117.239 582.765Z" fill="#ACD29A"/>
<path d="M178.545 357.624L181.084 360.97C181.084 360.97 188.03 356.925 189.597 370.328C189.597 370.328 190.015 376.039 187.786 376.048C185.558 376.062 186.478 375.426 183.322 375.576C180.167 375.726 177.552 373.024 177.09 368.866L175.581 365.342L178.545 357.624Z" fill="#EA8E50"/>
<path d="M178.259 364.807C180.284 361.374 180.121 358.836 180.121 358.836C180.121 358.836 156.666 327.654 154.287 325.114C152.666 323.383 135.393 298.518 127.318 283.359C123.313 275.84 118.352 278.758 112.676 281.402L108.002 283.579C102.358 286.209 100.89 299.027 105.521 305.255C118.564 322.797 140.261 342.528 144.32 346.674C154.399 356.97 174.126 369.202 174.126 369.202C174.126 369.202 176.519 367.758 178.259 364.807Z" fill="#1E3D70"/>
<path d="M205.708 556.055C205.708 556.055 211.4 562.978 220.122 559.324C220.122 559.324 227.155 556.717 228.695 562.415C228.695 562.415 217.911 571.31 215.182 573.743C213.125 575.578 210.979 578.47 209.461 580.708C208.26 582.479 206.39 582.238 205.366 580.195C204.891 579.251 204.348 578.12 203.753 576.813C202.091 573.153 198.216 561.335 198.216 561.335L205.708 556.055Z" fill="#233862"/>
<path d="M208.366 552.858C208.366 552.858 204.9 565.834 196.899 563.451C196.899 563.451 180.573 541.558 169.375 518.816C165.738 511.429 162.641 503.951 160.821 497.109C153.395 469.191 133.351 427.553 120.608 406.45L152.492 387.721C152.492 387.721 162.704 421.078 176.292 462.054C186.085 491.574 197.628 525.054 208.366 552.858Z" fill="#2B478B"/>
<path d="M176.292 462.054L169.374 518.816C165.737 511.429 162.641 503.951 160.821 497.109C153.395 469.191 133.351 427.553 120.608 406.45L152.491 387.721C152.491 387.721 162.704 421.078 176.292 462.054Z" fill="#233862"/>
<path d="M150.147 563.419C150.147 563.419 149.8 573.771 157.531 575.155C157.531 575.155 161.949 575.192 161.961 581.779L139.492 581.897C139.492 581.897 138.839 579.237 138.681 573.544C138.559 569.171 141.291 557.739 141.291 557.739L150.147 563.419Z" fill="#233862"/>
<path d="M142.033 387.721C142.033 387.721 156.237 413.065 165.253 458.721C170.159 483.561 156.262 546.021 153.553 567.718C153.553 567.718 144.23 569.003 137.856 565.003C137.856 565.003 137.372 520.182 141.1 485.636C143.186 466.303 122.398 444.288 113.314 409.355C107.135 385.592 114.653 385.996 123.891 385.424L142.033 387.721Z" fill="#2B478B"/>
<path d="M125.637 274.657C117.734 281.903 101.556 275.22 101.556 275.22C101.556 275.22 108.126 263.024 105.141 243.381L111.346 248.498L118.011 253.994C118.011 253.994 118.441 257.463 118.741 263.694C118.817 265.299 118.886 267.091 118.933 269.049C122.99 271.047 125.637 274.657 125.637 274.657Z" fill="#FFB07B"/>
<path d="M154.614 386.414C154.614 388.665 153.014 389.746 152.674 389.855C149.487 390.804 140.587 396.425 132.57 397.714C125.819 398.863 119.552 397.769 112.666 395.526C111.754 395.226 109.614 394.291 109.462 392.874C109.272 391.322 82.9021 305.585 103.402 268.755C103.883 267.891 107.929 269.447 111.63 270.873C115.047 272.19 118.182 271.456 120.981 269.633L124.452 272.598C128.713 276.454 136.777 290.154 137.72 300.903C138.2 306.37 140.125 310.418 140.682 315.227C140.889 317.006 141.1 318.744 141.315 320.437C141.735 323.758 142.169 326.918 142.614 329.925C143.819 338.055 145.092 345.054 146.342 351.101C147.672 357.52 148.976 362.859 150.141 367.326C151.652 373.12 152.93 377.451 153.728 380.765C154.291 383.099 154.614 384.929 154.614 386.414Z" fill="#2A4E96"/>
<path d="M153.728 380.766C116.504 352.287 103.612 297.605 103.612 297.605C103.612 297.605 133.856 315.72 141.315 320.437C141.735 323.758 142.168 326.918 142.614 329.925C143.819 338.055 145.092 345.054 146.342 351.101C147.671 357.52 148.976 362.859 150.141 367.326C151.652 373.12 152.93 377.451 153.728 380.766Z" fill="#1E3D70"/>
<path d="M258.873 320.2L250.898 279.147C250.124 275.16 247.585 273.273 245.365 274.286L245.359 274.289C245.242 274.344 245.124 274.409 245.009 274.479L242.213 275.996C242.213 275.996 237.835 283.315 234.695 284.791C225.037 289.328 215.87 280.971 212.347 265.682C208.428 248.677 212.975 230.004 223.501 224.614C227.103 222.769 234.191 226.206 234.191 226.206L237.038 224.671C238.584 223.908 239.644 221.2 239.093 218.358L230.316 173.173C229.116 166.994 225.062 163.566 221.257 165.513L195.344 178.785C192.946 180.01 190.592 176.714 190.988 172.683C191.445 168.02 191.26 163.121 190.326 158.313C186.654 139.403 172.995 130.104 161.762 140.905C156.107 146.34 151.938 159.697 152.55 170.322C153.002 178.172 155.051 184.841 158.047 189.786C159.759 192.614 159.013 197.39 156.683 198.58L130.609 211.933C126.807 213.881 124.697 220.464 125.896 226.637L154.534 374.091C155.706 380.121 159.667 383.467 163.381 381.565L254.091 335.116C257.947 333.141 260.089 326.463 258.873 320.2Z" fill="#4A75CB"/>
<path d="M149.791 171.815C150.243 179.665 152.291 186.335 155.288 191.279C157 194.108 156.254 198.88 153.924 200.074L127.85 213.427C124.048 215.374 121.938 221.957 123.137 228.131L151.775 375.585C152.947 381.615 156.908 384.961 160.622 383.058L251.333 336.609C255.192 334.634 257.331 327.956 256.114 321.694L248.14 280.64C247.108 275.329 242.945 273.744 240.579 277.778C238.297 281.675 235.361 284.675 231.936 286.285C222.278 290.822 211.968 282.435 208.445 267.146C204.525 250.142 210.216 231.498 220.743 226.107C224.703 224.079 228.765 224.225 232.442 226.133C234.83 227.372 237.089 223.735 236.334 219.851L227.557 174.662C226.358 168.487 222.303 165.06 218.499 167.007L192.586 180.278C190.188 181.504 187.833 178.208 188.229 174.176C188.686 169.513 188.501 164.615 187.567 159.806C183.895 140.896 170.237 131.598 159.003 142.395C153.348 147.834 149.179 161.191 149.791 171.815Z" fill="#699DEE"/>
<path d="M175.507 364.262L178.724 366.178C178.724 366.178 185.166 358.782 189.175 370.809C189.175 370.809 190.626 376.062 188.33 377.201C186.034 378.346 186.869 377.27 183.641 379.018C180.414 380.761 177.234 379.503 176.015 375.762L173.829 373.156L175.507 364.262Z" fill="#FFB07B"/>
<path d="M178.154 371.649C179.344 366.609 179.887 364.325 179.887 364.325C179.887 364.325 155.581 332.157 153.105 329.398C151.417 327.518 134.616 307.126 126.425 291.234C122.361 283.351 115.955 279.747 109.759 281.857L104.657 283.594C98.4955 285.692 96.4938 298.355 101.273 305.007C114.733 323.744 137.435 345.476 141.668 349.996C152.176 361.215 175.419 376.938 175.419 376.938C175.419 376.938 177.22 375.603 178.154 371.649Z" fill="#2A4E96"/>
<path d="M118.741 263.694C110.97 264.403 105.916 253.984 105.916 253.984C105.916 253.984 109.43 250.824 111.346 248.498L118.011 253.994C118.011 253.994 118.441 257.463 118.741 263.694Z" fill="#EA8E50"/>
<path d="M122.052 250.739C122.052 250.739 110.277 264.459 105.128 252.421C99.9783 240.383 94.9905 234.046 102.291 224.777C109.591 215.506 113.033 218.437 115.353 221.776C117.674 225.115 124.982 246.859 122.052 250.739Z" fill="#FFB07B"/>
<path d="M116.597 210.902C116.175 206.276 115.225 203.02 115.225 203.02C115.225 203.02 114.486 207.992 108.892 207.306C103.298 206.621 94.4323 208.196 91.4767 218.548C91.2885 219.207 91.121 219.885 90.9723 220.579C90.4371 218.284 90.3082 214.843 90.3082 214.843C89.2454 219.301 90.3082 224.875 90.3082 224.875H90.3085C90.2928 225.037 90.2794 225.2 90.2649 225.363C89.0306 227.058 87.9935 232.326 87.9935 232.326C88.3663 230.858 89.2747 229.898 90.0851 229.308C90.0599 237.362 92.0712 245.235 95.6019 247.579C100.765 251.007 100.724 248.392 105.916 253.984C105.916 253.984 107.309 251.178 106.359 249.293C105.409 247.408 101.821 244.666 103.826 241.924C105.831 239.182 106.57 242.266 107.309 240.381C108.048 238.496 104.354 233.012 109.103 227.871C113.853 222.729 117.019 215.529 116.597 210.902Z" fill="#233862"/>
<path d="M419.718 581.97C419.718 581.97 413.762 567.677 404.445 568.83C401.612 569.18 397.01 570.301 391.664 571.496C387.631 548.649 376.519 494.348 361.529 491.287C346.224 488.168 376.178 548.558 388.428 572.204C386.195 572.681 383.873 573.148 381.532 573.562C375.046 562.315 363.744 545.657 354.307 546.937C344.849 548.222 362.559 564.104 375.346 574.492C367.499 575.445 360.061 575.341 355.518 572.49C344.385 565.502 334.155 581.97 334.155 581.97H419.718Z" fill="#82B378"/>
<path d="M719.181 584.999H0.815905C0.367488 584.999 0 584.404 0 583.673V583.223C0 582.492 0.367488 581.898 0.815905 581.898H719.181C719.629 581.898 720 582.492 720 583.223V583.673C720 584.404 719.629 584.999 719.181 584.999Z" fill="#2E3552"/>
</svg>
