<svg width="698" height="602" viewBox="0 0 698 602" fill="none" xmlns="http://www.w3.org/2000/svg">
<path d="M608.955 172.433C608.955 172.433 598.648 201.156 591.715 213.289C584.778 225.422 578.17 237.023 572.64 270.698C567.102 304.373 568.054 307.756 566.535 316.454C565.021 325.153 555.167 360.392 555.107 366.854C555.052 373.315 535.188 410.101 530.098 427.32C525.012 444.537 515.998 469.131 516.505 481.651L518.769 480.915C518.769 480.915 520.612 451.72 536.314 422.214C552.019 392.708 549.771 387.138 567.606 371.978C585.44 356.821 596.955 314.95 596.955 314.95C596.955 314.95 615.095 269.469 614.255 245.826C613.41 222.183 618.223 200.861 608.955 172.433Z" fill="#256653"/>
<path d="M584.818 128.232C584.818 128.232 584.217 147.1 579.465 158.312C574.71 169.518 570.612 176.325 569.752 188.452C568.891 200.578 565.902 231.842 552.644 247.105C539.386 262.368 537.694 308.101 527.601 321.934C517.511 335.77 516.192 345.714 518.057 369.442C519.917 393.169 526.248 426.051 511.61 468.972L508.302 458.296C508.302 458.296 518.774 422.986 516.241 402.309C513.703 381.636 504.881 350.393 508.11 335.409C511.339 320.426 499.332 317.5 506.565 294.837C513.794 272.176 510.824 264.302 520.669 244.708C520.669 244.708 521.676 243.79 524.263 227.213C526.853 210.634 547.716 180.249 557.332 169.88C566.944 159.51 580.8 142.894 584.818 128.232Z" fill="#256653"/>
<path d="M545.658 221.631C545.658 221.631 534.142 246.864 533.982 263.104C533.818 279.345 535.192 292.556 529.367 314.794C523.541 337.035 535.104 351.094 531.771 363.374C528.438 375.653 528.183 390.191 528.281 401.214C528.383 412.241 515.094 448.725 513.072 467.197C511.05 485.673 513.633 485.733 513.633 485.733C513.633 485.733 515.837 461.344 518.897 453.28C521.953 445.215 531.25 417.407 533.421 406.649C535.592 395.891 541.479 388.988 546.561 370.77C551.639 352.549 558.86 337.205 558.31 311.351C557.756 285.499 565.883 258.213 545.658 221.631Z" fill="#3C8F7C"/>
<path d="M521.287 468.812C521.287 468.812 526.652 436.813 549.291 433.616C571.933 430.422 585.233 436.148 601.228 412.769C617.223 389.387 626.509 352.288 631.619 345.901C631.619 345.901 623.583 340.611 610.223 356.588C596.862 372.565 587.479 384.687 579.743 393.988C572.01 403.292 565.731 397.227 557.565 403.359C550.719 408.497 541.87 423.353 537.973 431.133C536.707 433.662 535.206 435.981 533.478 438.015C531.912 439.868 530.043 442.138 528.845 443.807C526.45 447.149 519.535 468.929 519.535 468.929L521.287 468.812Z" fill="#3C8F7C"/>
<path d="M513.304 463.162C513.304 463.162 521.286 423.999 515.939 404.833C510.595 385.67 493.866 371.487 494.537 359.448C495.207 347.409 505.952 314.87 497.192 290.647C497.192 290.647 493.866 312.255 490.585 317.061C487.299 321.87 464.772 341.252 468.765 366.855C472.757 392.454 494.661 398.438 500.056 405.976C505.447 413.51 512.731 413.503 512.778 418.514C512.822 423.525 514.244 441.746 511.825 459.726L513.304 463.162Z" fill="#3C8F7C"/>
<path d="M522.028 436.961L533.239 395.628C533.239 395.628 539.826 362.382 543.638 334.659C547.458 306.936 545.661 221.643 545.661 221.643C545.661 221.643 534.146 246.876 533.984 263.117C533.822 279.358 535.195 292.569 529.37 314.806C523.546 337.048 535.107 351.107 531.771 363.387C528.442 375.666 528.184 390.203 528.283 401.227C528.386 412.254 515.096 448.738 513.073 467.211C511.968 477.332 512.24 481.921 512.716 484.005C510.92 467.848 522.028 436.961 522.028 436.961Z" fill="#327F6B"/>
<path d="M577.242 412.333C567.244 414.888 558.302 414.018 546.43 425.328C534.558 436.638 527.579 448.715 527.579 448.715C527.579 448.715 522.246 460.921 520.036 467.358C519.721 468.341 519.535 468.929 519.535 468.929L521.287 468.812C521.287 468.812 526.652 436.79 549.291 433.591C571.933 430.395 585.233 436.125 601.228 412.73C617.223 389.332 626.509 352.206 631.619 345.815C631.619 345.815 614.609 362.756 604.097 377.749C593.585 392.74 587.244 409.775 577.242 412.333Z" fill="#327F6B"/>
<path d="M490.584 317.075C487.3 321.884 464.77 341.266 468.766 366.868C472.755 392.468 494.66 398.452 500.053 405.99C505.446 413.523 512.733 413.516 512.776 418.527C512.823 423.538 514.243 441.759 511.824 459.74L512.472 461.24C513.651 454.223 515.292 443.536 515.827 435.421C516.699 422.247 515.031 416.79 511.724 406.117C508.412 395.441 487.854 373.698 482.702 362.268C477.55 350.835 492.635 331.729 495.983 322.503C499.331 313.277 497.193 290.661 497.193 290.661C497.193 290.661 493.865 312.269 490.584 317.075Z" fill="#327F6B"/>
<path d="M544.029 444.247L547.545 433.358C550.276 425.35 557.264 421.528 563.151 424.819C577.994 433.111 584.444 456.19 577.562 476.372L572.532 491.125C570.33 497.587 571.096 504.7 574.068 509.71C576.769 514.265 577.209 520.596 575.334 526.084L572.686 533.862C569.812 542.281 564.225 548.52 557.598 551.093C553.721 552.596 550.299 556.319 548.488 561.627L544.735 572.64C540.584 584.813 529.959 590.627 521.003 585.627L515.894 582.771C506.941 577.768 503.049 563.843 507.201 551.666C513.918 537.107 513.381 526.243 510.999 518.872C507.501 508.037 507.542 495.569 511.329 484.472L511.859 482.915C515.853 471.202 523.569 462.458 532.751 458.714C536.808 457.061 541.034 453.023 544.029 444.247Z" fill="#50BFA5"/>
<path d="M480.662 598.004C487.861 586.05 527.355 522.02 553.102 511.347C581.529 499.57 554.736 546.352 554.736 546.352C554.736 546.352 605.157 475.775 623.664 482.138C640.625 487.97 623.664 531.717 623.664 531.717C623.664 531.717 642.765 507.49 665.932 507.49C688.478 507.49 650.18 593.404 648.114 598.004H480.662Z" fill="#96D9C9"/>
<path d="M632.616 459.478C612.015 500.666 596.977 546.419 588.382 595.024L586.972 594.539C595.529 546.95 610.468 501.278 631.031 460.137C635.81 450.578 640.973 439.233 649.925 435.503C650.096 435.432 650.162 435.769 649.996 435.847C641.822 439.789 637.088 450.54 632.616 459.478Z" fill="#3C8F7C"/>
<path d="M593.348 596.737C616.371 556.664 644.356 519.624 677.631 487.414C677.969 487.092 678.416 487.835 678.082 488.164C646.518 519.22 618.594 555.892 595.095 597.335L593.348 596.737Z" fill="#3C8F7C"/>
<path d="M634.497 433.939C635.027 434.936 637.057 437.541 637.653 440.959C638.454 444.204 637.822 448.267 637.756 448.126C637.604 448.207 640.102 445.5 640.887 441.193C641.898 437.06 641.191 431.331 639.93 429.434C637.756 425.142 633.959 424.706 633.219 426.787C632.438 428.854 633.429 431.667 634.497 433.939Z" fill="#3C8F7C"/>
<path d="M639.424 470.779C638.659 470.082 636.66 467.432 634.003 466.6C631.483 465.513 628.3 466.243 628.408 466.331C628.342 466.526 630.506 463.376 633.887 462.463C637.132 461.249 641.593 462.268 643.049 463.917C646.36 466.784 646.625 471.653 644.986 472.556C643.356 473.514 641.179 472.191 639.424 470.779Z" fill="#3C8F7C"/>
<path d="M631.987 486.804C631.221 486.107 629.228 483.456 626.568 482.628C624.047 481.538 620.863 482.267 620.973 482.355C620.904 482.55 623.069 479.401 626.449 478.487C629.695 477.274 634.16 478.293 635.617 479.942C638.924 482.808 639.19 487.678 637.548 488.58C635.92 489.543 633.742 488.216 631.987 486.804Z" fill="#3C8F7C"/>
<path d="M658.517 524.196C657.751 523.494 655.756 520.844 653.096 520.016C650.577 518.926 647.389 519.655 647.5 519.744C647.436 519.938 649.598 516.789 652.977 515.875C656.224 514.662 660.688 515.681 662.143 517.33C665.454 520.196 665.718 525.066 664.079 525.968C662.445 526.931 660.271 525.604 658.517 524.196Z" fill="#3C8F7C"/>
<path d="M672.074 508.901C671.306 508.204 669.311 505.554 666.651 504.722C664.13 503.632 660.946 504.365 661.054 504.453C660.989 504.648 663.154 501.498 666.534 500.581C669.779 499.371 674.239 500.39 675.697 502.036C679.007 504.903 679.272 509.772 677.632 510.678C676.001 511.637 673.827 510.313 672.074 508.901Z" fill="#3C8F7C"/>
<path d="M624.092 452.162C624.739 453.039 627.062 455.201 628.07 458.461C629.264 461.501 629.139 465.641 629.054 465.514C628.912 465.627 631.049 462.446 631.292 458.036C631.781 453.751 630.377 448.237 628.9 446.617C626.225 442.816 622.42 443.156 621.947 445.357C621.433 447.558 622.756 450.134 624.092 452.162Z" fill="#3C8F7C"/>
<path d="M613.154 470.443C614.077 471.07 617.292 472.202 618.91 475.284C620.74 478.023 620.972 482.712 620.852 482.617C620.68 482.818 623.145 478.094 623.037 473.037C623.265 467.987 620.92 462.605 618.854 461.61C615.031 458.839 610.138 461.309 609.738 464.031C609.275 466.77 611.24 468.914 613.154 470.443Z" fill="#3C8F7C"/>
<path d="M601.643 498.125C602.633 498.543 605.949 498.968 607.949 501.657C610.114 503.964 610.958 508.537 610.825 508.469C610.683 508.703 612.491 503.518 611.721 498.557C611.284 493.528 608.267 488.727 606.098 488.188C601.965 486.285 597.467 489.771 597.431 492.538C597.333 495.337 599.549 497.032 601.643 498.125Z" fill="#3C8F7C"/>
<path d="M635.707 517.408C636.428 517.984 638.993 519.138 640.172 521.764C641.536 524.124 641.515 527.957 641.425 527.868C641.272 528.021 643.49 524.358 643.626 520.239C644.038 516.148 642.373 511.597 640.736 510.635C637.748 508.104 633.658 509.757 633.209 511.94C632.714 514.134 634.215 516.024 635.707 517.408Z" fill="#3C8F7C"/>
<path d="M653.439 440.399C653.01 439.937 651.92 438.235 650.377 437.587C648.921 436.791 647.012 437.049 647.075 437.11C647.029 437.221 648.412 435.458 650.448 435.104C652.408 434.559 655.012 435.422 655.819 436.494C657.678 438.396 657.666 441.328 656.665 441.775C655.672 442.259 654.427 441.342 653.439 440.399Z" fill="#3C8F7C"/>
<path d="M649.313 428.591C649.329 429.314 649.705 431.456 649.158 433.426C648.757 435.393 647.436 437.184 647.436 437.089C647.34 437.067 649.262 436.718 650.721 434.861C652.251 433.191 653.312 430.005 653.149 428.534C653.12 425.481 651.323 423.71 650.441 424.462C649.534 425.185 649.338 427.01 649.313 428.591Z" fill="#3C8F7C"/>
<path d="M681.836 493.332C681.402 492.879 680.312 491.198 678.77 490.557C677.316 489.772 675.406 490.027 675.467 490.084C675.419 490.197 676.808 488.456 678.84 488.102C680.802 487.567 683.409 488.42 684.21 489.475C686.072 491.358 686.059 494.252 685.06 494.694C684.066 495.172 682.822 494.267 681.836 493.332Z" fill="#3C8F7C"/>
<path d="M676.851 481.465C676.921 482.176 677.429 484.26 677.008 486.267C676.729 488.256 675.529 490.17 675.525 490.071C675.425 490.06 677.321 489.515 678.656 487.526C680.074 485.708 680.93 482.448 680.678 481.008C680.456 477.986 678.551 476.422 677.716 477.257C676.86 478.071 676.782 479.897 676.851 481.465Z" fill="#3C8F7C"/>
<path d="M673.383 558.131C652.35 561.082 632.757 572.969 613.897 584.558C601.177 592.375 601.818 594.601 599.227 595.766C598.81 595.953 598.388 595.369 598.595 594.853C599.589 592.326 602.205 590.616 604.021 589.162C606.138 587.471 608.35 585.974 610.592 584.58C615.394 581.596 620.317 578.914 625.21 576.193C635.167 570.655 645.284 565.445 655.801 561.921C661.567 559.989 667.432 558.594 673.37 557.911C673.482 557.897 673.495 558.113 673.383 558.131Z" fill="#3C8F7C"/>
<path d="M654.427 549.771C654.562 550.879 655.463 554.085 654.909 557.252C654.579 560.377 652.796 563.463 652.784 563.311C652.631 563.3 655.564 562.295 657.546 559.079C659.667 556.127 660.837 550.968 660.368 548.742C659.87 544.046 656.819 541.764 655.56 543.136C654.267 544.474 654.233 547.33 654.427 549.771Z" fill="#3C8F7C"/>
<path d="M635.889 558.264C636.029 559.368 636.925 562.574 636.37 565.744C636.041 568.869 634.261 571.955 634.248 571.799C634.096 571.788 637.024 570.783 639.01 567.57C641.132 564.619 642.303 559.456 641.835 557.23C641.333 552.534 638.282 550.252 637.024 551.625C635.733 552.962 635.696 555.822 635.889 558.264Z" fill="#3C8F7C"/>
<path d="M617.062 569.02C617.198 570.124 618.093 573.33 617.542 576.501C617.214 579.625 615.432 582.711 615.42 582.555C615.264 582.548 618.197 581.54 620.179 578.326C622.301 575.375 623.472 570.212 623.001 567.987C622.505 563.294 619.452 561.008 618.193 562.381C616.902 563.719 616.866 566.578 617.062 569.02Z" fill="#3C8F7C"/>
<path d="M659.956 571.933C659.577 571.021 658.84 568.016 657.051 566.077C655.445 564.007 652.787 563.009 652.846 563.129C652.735 563.246 655.334 561.894 658.197 562.846C661.047 563.504 664.161 566.47 664.787 568.448C666.465 572.263 665.213 576.124 663.688 576.014C662.154 575.953 660.876 573.869 659.956 571.933Z" fill="#3C8F7C"/>
<path d="M640.681 580.681C640.3 579.769 639.563 576.764 637.774 574.825C636.167 572.755 633.508 571.757 633.566 571.877C633.458 571.994 636.059 570.642 638.921 571.594C641.771 572.252 644.885 575.218 645.511 577.196C647.188 581.011 645.937 584.871 644.409 584.762C642.877 584.701 641.605 582.617 640.681 580.681Z" fill="#3C8F7C"/>
<path d="M674.635 562.953C674.306 562.444 673.53 560.682 672.208 559.769C670.989 558.739 669.216 558.562 669.264 558.629C669.207 558.721 670.699 557.433 672.593 557.546C674.453 557.479 676.712 558.813 677.31 559.949C678.759 562.062 678.373 564.698 677.402 564.886C676.43 565.109 675.416 564.015 674.635 562.953Z" fill="#3C8F7C"/>
<path d="M672.414 551.342C672.336 551.997 672.401 554.018 671.645 555.684C671.022 557.376 669.584 558.717 669.597 558.625C669.515 558.586 671.312 558.685 672.88 557.319C674.492 556.133 675.874 553.479 675.917 552.113C676.289 549.343 674.881 547.354 673.978 547.846C673.062 548.306 672.643 549.916 672.414 551.342Z" fill="#3C8F7C"/>
<path d="M130.628 393.482C105.91 365.267 93.1999 324.752 86.8905 295.727C80.0408 264.222 79.0431 239.075 79.0337 238.824L77.6902 238.718C77.6996 238.973 78.7017 264.303 85.5928 296.021C91.9609 325.329 104.805 366.262 129.829 394.823L130.628 393.482Z" fill="#3C8F7C"/>
<path d="M81.8491 231.53C83.0674 238.784 82.0476 245.639 79.45 250.586C75.3771 246.746 72.1741 240.6 70.9558 233.345C69.7378 226.091 70.7576 219.236 73.3551 214.289C77.4281 218.125 80.631 224.275 81.8491 231.53Z" fill="#3C8F7C"/>
<path d="M74.2676 252.2C78.5263 257.271 81.0158 263.935 81.4982 270.35C76.8231 270.619 71.6794 268.192 67.4207 263.121C63.162 258.046 60.6725 251.386 60.1901 244.97C64.8652 244.698 70.0088 247.129 74.2676 252.2Z" fill="#3C8F7C"/>
<path d="M72.2694 273.904C77.5618 276.031 81.9023 280.748 84.4711 286.477C80.6301 289.637 75.4845 290.543 70.1921 288.42C64.8994 286.293 60.5591 281.576 57.9904 275.843C61.8314 272.687 66.9767 271.777 72.2694 273.904Z" fill="#3C8F7C"/>
<path d="M80.4203 300.001C84.6124 301.696 87.9644 306.024 89.8631 311.492C86.6847 314.91 82.5227 316.205 78.3303 314.514C74.1382 312.819 70.7862 308.491 68.8873 303.023C72.0656 299.605 76.2279 298.31 80.4203 300.001Z" fill="#3C8F7C"/>
<path d="M87.5787 262.747C90.8779 258.494 95.2478 256.682 99.4775 257.266C99.7119 262.995 98.1682 268.802 94.8688 273.056C91.5696 277.306 87.1997 279.118 82.9697 278.537C82.7356 272.808 84.2793 266.997 87.5787 262.747Z" fill="#3C8F7C"/>
<path d="M91.4028 281.43C94.7022 277.193 99.0721 275.389 103.302 275.967C103.536 281.676 101.993 287.46 98.6931 291.693C95.3939 295.93 91.024 297.734 86.794 297.156C86.5599 291.446 88.1036 285.663 91.4028 281.43Z" fill="#3C8F7C"/>
<path d="M115.731 431.749C92.9051 427.492 73.3708 410.18 61.0032 396.407C47.5765 381.46 39.4587 367.333 39.3783 367.191L38.5652 367.789C38.6465 367.931 46.8223 382.164 60.3361 397.214C72.824 411.125 92.5604 428.61 115.67 432.924L115.731 431.749Z" fill="#50BFA5"/>
<path d="M38.8284 361.575C41.7113 365.191 43.1726 369.678 43.146 373.829C39.6279 373.599 35.9224 371.596 33.0395 367.98C30.157 364.36 28.6954 359.876 28.7219 355.722C32.2403 355.955 35.9456 357.954 38.8284 361.575Z" fill="#50BFA5"/>
<path d="M40.6138 377.224C44.6099 378.081 48.054 380.728 50.2575 384.22C47.6216 386.676 43.9036 387.791 39.9075 386.935C35.9114 386.078 32.4671 383.428 30.2637 379.935C32.8997 377.483 36.618 376.368 40.6138 377.224Z" fill="#50BFA5"/>
<path d="M45.9584 390.899C49.6723 389.537 53.6095 390.146 56.8208 392.216C55.5344 395.938 52.8155 398.992 49.102 400.358C45.3881 401.721 41.4509 401.112 38.2396 399.042C39.526 395.319 42.2449 392.265 45.9584 390.899Z" fill="#50BFA5"/>
<path d="M58.5234 402.077C61.4679 401.001 64.714 401.871 67.4567 404.115C66.6337 407.664 64.6026 410.464 61.6584 411.536C58.7139 412.612 55.4678 411.741 52.7249 409.497C53.5481 405.948 55.5789 403.152 58.5234 402.077Z" fill="#50BFA5"/>
<path d="M51.514 376.855C52.1573 372.743 54.1541 369.531 56.7873 367.786C58.6412 371.012 59.4849 375.167 58.8416 379.275C58.1983 383.383 56.2013 386.599 53.5681 388.344C51.7142 385.117 50.8704 380.963 51.514 376.855Z" fill="#50BFA5"/>
<path d="M59.3461 385.888C59.9897 381.793 61.9865 378.594 64.6197 376.853C66.4736 380.07 67.3171 384.207 66.6738 388.298C66.0305 392.388 64.0334 395.591 61.4005 397.329C59.5466 394.112 58.7028 389.979 59.3461 385.888Z" fill="#50BFA5"/>
<path d="M129.476 519.212C103.145 532.008 74.1609 525.249 54.4826 517.326C33.1197 508.723 17.8021 496.932 17.6495 496.815L17.0659 498.241C17.2191 498.362 32.6487 510.245 54.1527 518.908C74.0241 526.913 103.307 533.735 129.964 520.78L129.476 519.212Z" fill="#96D9C9"/>
<path d="M14.4092 489.947C19.189 492.326 22.8631 496.961 24.7946 502.365C20.9376 504.888 16.0449 505.267 11.2651 502.892C6.48525 500.514 2.81121 495.878 0.879639 490.475C4.73641 487.952 9.62933 487.573 14.4092 489.947Z" fill="#96D9C9"/>
<path d="M23.7379 508.911C28.3997 506.816 33.3203 507.485 37.3164 510.245C35.6668 515.539 32.2316 519.966 27.5695 522.064C22.9077 524.159 17.9871 523.487 13.991 520.73C15.6409 515.436 19.0761 511.009 23.7379 508.911Z" fill="#96D9C9"/>
<path d="M35.8516 522.251C39.1643 517.502 43.6478 515.134 48.0464 515.241C48.4326 521.097 46.9785 527.237 43.6655 531.983C40.3525 536.732 35.8693 539.099 31.4707 538.993C31.0845 533.14 32.5389 526.996 35.8516 522.251Z" fill="#96D9C9"/>
<path d="M52.8003 529.137C56.113 524.392 60.5965 522.025 64.9948 522.131C65.3813 527.984 63.9269 534.124 60.6142 538.873C57.3012 543.618 52.818 545.986 48.4193 545.883C48.0331 540.026 49.4873 533.887 52.8003 529.137Z" fill="#96D9C9"/>
<path d="M36.8535 506.885C33.938 502.026 32.6387 496.169 32.9475 490.858C36.7871 491.431 40.7127 494.287 43.6279 499.145C46.5431 504.004 47.8427 509.861 47.5336 515.172C43.6943 514.599 39.7686 511.743 36.8535 506.885Z" fill="#96D9C9"/>
<path d="M54.4607 513.933C51.4908 509.131 50.1207 503.295 50.3621 497.966C54.2003 498.454 58.1533 501.225 61.1235 506.027C64.0937 510.829 65.4638 516.668 65.2224 521.998C61.3839 521.509 57.4309 518.739 54.4607 513.933Z" fill="#96D9C9"/>
<path d="M75.0746 531.025C75.8534 528.494 77.4004 526.736 79.2131 526.01C80.0825 528.349 80.234 531.127 79.4553 533.658C78.6765 536.188 77.1295 537.947 75.3168 538.672C74.447 536.333 74.2961 533.555 75.0746 531.025Z" fill="#96D9C9"/>
<path d="M185.988 595.53C185.988 595.53 219.536 425.691 208.411 408.627C193.037 385.041 180.355 463.279 179.11 456.634C167.358 393.877 164.228 313.579 126.318 305.082C104.767 300.249 131.296 364.792 129.699 382.249C128.103 399.705 89.267 341.748 65.6674 311.385C42.0675 281.022 29.8793 300.245 44.7906 338.425C59.2098 375.345 105.856 415.69 96.2405 420.478C86.6255 425.266 28.2522 377.585 21.1039 397.968C12.3393 422.959 99.9021 456.966 91.6566 462.582C83.4112 468.195 41.5614 449.705 42.7048 468.814C43.8479 487.927 100.106 487.212 99.1443 495.62C97.5876 509.23 60.3789 478.422 58.7434 497.255C57.0706 516.516 107.695 513.002 106.818 528.028C106.314 536.663 95.4515 523.636 93.8508 535.597C90.2014 562.864 156.937 596.082 156.937 596.082L185.988 595.53Z" fill="#3C8F7C"/>
<path d="M211.568 596.569C211.568 596.569 179.641 533.908 164.278 522.078C147.908 509.473 160.37 547.214 160.37 547.214C160.37 547.214 126.918 496.259 117.619 506.61C108.319 516.965 116.76 528.954 116.76 528.954C116.76 528.954 86.7273 517.563 81.3293 531.672C73.0349 553.357 122.479 571.338 122.479 571.338C122.479 571.338 101.254 571.048 105.159 585.688C111.048 607.766 211.568 596.569 211.568 596.569Z" fill="#50BFA5"/>
<path d="M81.3293 531.66C86.7273 517.551 116.76 528.942 116.76 528.942C116.76 528.942 108.319 516.953 117.619 506.598C126.918 496.247 153.678 527.236 153.678 527.236C153.678 527.236 150.873 501.679 171.025 524.193C185.418 540.273 211.568 596.557 211.568 596.557L81.3293 531.66Z" fill="#96D9C9"/>
<path d="M172.813 439.231L174.246 437.978C148.252 387.586 140.317 327.757 138.238 286.438C135.982 241.602 139.942 208.274 139.982 207.945L138.207 207.283C138.166 207.619 134.176 241.167 136.441 286.272C138.533 327.941 146.542 388.301 172.813 439.231Z" fill="#96D9C9"/>
<path d="M145.1 200.097C145.156 210.218 142.413 218.587 138.033 223.609C133.584 216.369 130.739 206.595 130.682 196.474C130.626 186.349 133.369 177.98 137.749 172.959C142.198 180.199 145.043 189.973 145.1 200.097Z" fill="#96D9C9"/>
<path d="M131.02 222.881C135.45 231.822 137.269 241.862 136.553 250.478C130.47 248.265 124.348 242.279 119.918 233.339C115.487 224.398 113.668 214.357 114.384 205.738C120.467 207.951 126.589 213.937 131.02 222.881Z" fill="#96D9C9"/>
<path d="M123.917 250.048C130.295 255.724 134.904 264.26 137.019 273.139C131.411 275.141 124.59 273.5 118.212 267.82C111.835 262.144 107.225 253.608 105.11 244.729C110.719 242.726 117.54 244.368 123.917 250.048Z" fill="#96D9C9"/>
<path d="M132.235 297.577C135.016 299.685 137.129 303.068 138.214 306.7C135.93 307.782 133.059 307.385 130.277 305.274C127.496 303.166 125.383 299.784 124.298 296.151C126.581 295.069 129.453 295.466 132.235 297.577Z" fill="#96D9C9"/>
<path d="M134.495 315.086C137.276 317.213 139.39 320.617 140.475 324.28C138.191 325.366 135.319 324.966 132.538 322.843C129.757 320.72 127.643 317.312 126.559 313.649C128.842 312.563 131.714 312.963 134.495 315.086Z" fill="#96D9C9"/>
<path d="M145.974 243.914C151.113 240.188 157.123 240.226 162.453 243.309C161.56 250.906 158.359 257.627 153.22 261.353C148.081 265.083 142.071 265.04 136.741 261.962C137.634 254.364 140.835 247.644 145.974 243.914Z" fill="#96D9C9"/>
<path d="M147 270.396C152.139 266.67 158.148 266.709 163.479 269.791C162.585 277.385 159.384 284.109 154.246 287.835C149.107 291.562 143.097 291.523 137.767 288.44C138.66 280.843 141.861 274.123 147 270.396Z" fill="#96D9C9"/>
<path d="M145.981 308.314C149.326 305.876 153.237 305.901 156.707 307.919C156.125 312.891 154.042 317.29 150.697 319.732C147.352 322.17 143.44 322.145 139.971 320.127C140.552 315.155 142.636 310.756 145.981 308.314Z" fill="#96D9C9"/>
<path d="M512.784 457.798C515.801 458.429 515.624 459.06 516.013 459.127C516.471 459.205 521.923 455.696 521.923 455.696C521.923 455.696 538.047 445.488 538.901 444.896L550.542 426.116L559.512 431.424C559.512 431.424 546.422 451.388 545.594 452.267C544.765 453.146 521.646 463.545 519.635 464.548C519.635 464.548 517.606 466.924 516.298 468.359C514.982 469.792 513.231 470.363 512.813 470.689C512.748 470.739 511.303 471.717 509.26 472.288C507.497 472.78 508.964 471.246 508.964 471.246C508.964 471.246 512.085 469.558 511.93 469.253C511.811 469.016 510.153 470.072 508.211 470.643C507.71 470.788 507.216 470.934 506.762 471.057C505.569 471.387 505.047 470.512 506.243 469.902C506.665 469.689 507.375 469.352 507.912 469.211C508.488 469.054 508.975 468.664 509.443 468.437C510.373 467.983 511.054 467.668 511.018 467.629C510.968 467.576 511.101 467.31 510.564 467.445C509.923 467.608 508.625 468.349 507.663 468.487C507.119 468.569 505.987 468.824 505.987 468.824C505.987 468.824 503.987 469.069 503.973 468.71C503.944 467.923 505.176 467.487 505.933 467.505C506.409 467.193 507.605 466.97 507.605 466.97C507.605 466.97 509.923 465.793 509.789 465.353C509.735 465.179 508.333 465.448 506.841 465.58C505.266 465.718 504.124 465.718 504.038 465.325C503.908 464.704 505.162 464.47 505.162 464.47C505.162 464.47 506.268 464.264 506.629 464.158C507.05 464.034 508.297 463.531 508.297 463.531C508.297 463.531 512.568 461.52 512.413 461.12C512.258 460.716 511.552 459.868 511.253 459.872C510.95 459.872 510.413 460.258 510.114 460.262C509.811 460.262 509.166 460.187 509.119 459.702C509.072 459.216 510.744 458.213 510.744 458.213C510.744 458.213 511.908 457.617 512.784 457.798Z" fill="#F8A492"/>
<path d="M542.44 437.673C542.44 437.673 545.344 441.039 546.553 442.147C547.555 443.068 552.449 446.078 552.449 446.078C552.449 446.078 557.317 436.565 559.444 431.795C562.026 426.004 563.815 417.399 563.205 417.166C561.492 416.509 559.136 416.111 556.958 417.385C549.428 421.795 542.44 437.673 542.44 437.673Z" fill="#355389"/>
<path d="M515.603 462.731C514.31 462.993 512.989 462.678 512.416 461.164C512.289 462.961 514.413 463.853 515.603 462.731Z" fill="#FE875E"/>
<path d="M154.712 395.748C154.892 390.186 154.255 384.691 152.321 379.515C150.658 375.059 146.541 372.529 142.787 372.526C130.866 372.504 129.35 392.776 121.762 400.595C119.443 402.983 116.852 404.927 114.658 407.507C106.556 417.019 110.205 434.63 117.644 442.973C122.807 448.758 130.92 452.049 137.282 447.522C140.604 445.162 143.125 441.237 144.921 436.933C147.47 430.828 149.114 423.785 150.927 417.277C152.857 410.351 154.474 403.142 154.712 395.748Z" fill="#13375B"/>
<path d="M156.66 422.719C152.936 408.26 148.021 408.487 148.021 408.487L151.992 439.274C154.292 438.471 157.285 436.68 159.582 435.848C158.821 431.276 157.577 426.279 156.66 422.719Z" fill="#F7CC7F"/>
<path d="M175.477 472.026L161.865 458.735C161.865 458.735 160.495 446.331 158.662 435.329C156.365 436.157 154.292 438.464 151.992 439.268L155.454 463.912L173.295 475.696L178.335 483.984L179.481 475.473L175.477 472.026Z" fill="#F48C7F"/>
<path d="M299.563 451.315C303.79 451.315 307.754 452.741 311.185 455.235C311.619 455.55 312.089 455.836 312.589 456.101C323.05 461.599 334.495 451.417 334.495 436.944V365.775H278.882C267.572 365.775 259.616 351.125 263.912 337.742C264.119 337.098 264.343 336.497 264.589 335.941C266.538 331.554 267.652 326.478 267.652 321.068C267.652 303.928 256.483 290.124 242.951 290.927C230.705 291.652 220.843 304.526 220.501 320.209C220.379 325.784 221.442 331.031 223.39 335.57C223.633 336.132 223.856 336.744 224.06 337.395C228.321 351.001 220.237 365.775 208.784 365.775H153.648V527.943C153.648 566.197 177.88 597.205 207.773 597.205H334.495V526.273C334.495 511.729 323.014 501.484 312.487 506.964C311.984 507.226 311.511 507.512 311.077 507.824C307.326 510.519 302.944 511.938 298.283 511.623C286.274 510.809 276.576 498.321 276.009 482.953C275.371 465.622 286.161 451.315 299.563 451.315Z" fill="#F47458"/>
<path d="M420.098 411.768C420.292 406.361 421.592 401.357 423.701 397.09C423.963 396.548 424.212 395.961 424.441 395.334C429.218 382.216 421.81 367.106 410.511 366.43L354.958 363.103L352.361 434.218C351.833 448.677 340.026 458.165 329.779 452.046C329.288 451.753 328.828 451.438 328.407 451.098C325.074 448.401 321.164 446.738 316.939 446.487C303.559 445.687 292.264 459.322 292.258 476.662C292.253 492.356 301.84 505.566 314.067 506.738C318.412 507.152 322.56 506.037 326.19 503.758C326.643 503.475 327.131 503.22 327.649 502.99C338.47 498.174 349.62 509.201 349.088 523.847L346.512 594.346L473.097 601.923C502.953 603.71 528.295 574.172 529.691 535.95L535.607 373.914L480.24 370.602C468.89 369.922 460.354 384.124 464.139 397.84C464.323 398.498 464.523 399.113 464.744 399.683C466.674 404.606 467.576 410.275 467.113 416.22C465.916 431.536 455.718 443.355 443.694 443.362C430.135 443.369 419.469 428.903 420.098 411.768Z" fill="#F7CC7F"/>
<path d="M265.299 299.81C265.512 305.214 264.6 310.356 262.825 314.864C262.601 315.434 262.4 316.05 262.22 316.705C258.455 330.354 266.975 344.477 278.268 343.748L333.813 340.174L331.02 269.073C330.454 254.617 341.484 243.707 352.147 248.527C352.658 248.757 353.139 249.015 353.584 249.302C357.106 251.574 361.123 252.741 365.347 252.472C378.725 251.609 388.937 236.637 387.629 219.378C386.449 203.758 375.908 191.797 363.65 192.147C359.29 192.271 355.251 193.895 351.807 196.613C351.378 196.953 350.914 197.268 350.413 197.561C340.011 203.691 328.076 194.101 327.501 179.457L324.731 108.969L198.169 117.115C168.314 119.036 145.328 151.575 146.829 189.79L153.194 351.798L208.553 348.235C219.903 347.506 227.322 332.31 222.517 319.129C222.287 318.499 222.04 317.911 221.774 317.37C219.484 312.709 218.156 307.178 218.168 301.205C218.2 285.811 227.458 272.785 239.425 271.288C252.917 269.6 264.628 282.676 265.299 299.81Z" fill="#50BFA5"/>
<path d="M378.987 260.6C374.758 260.6 370.793 259.175 367.361 256.68C366.93 256.364 366.459 256.077 365.957 255.813C355.501 250.314 344.051 260.498 344.051 274.974V346.164H399.668C410.976 346.164 418.932 360.817 414.635 374.208C414.432 374.849 414.204 375.45 413.957 376.006C412.01 380.394 410.894 385.472 410.894 390.883C410.894 408.028 422.063 421.836 435.598 421.033C447.841 420.307 457.707 407.43 458.046 391.743C458.168 386.166 457.107 380.917 455.157 376.377C454.913 375.815 454.692 375.202 454.489 374.551C450.226 360.941 458.308 346.164 469.764 346.164H524.9V183.953C524.9 145.689 500.667 114.67 470.775 114.67H344.051V185.62C344.051 200.168 355.535 210.416 366.059 204.935C366.564 204.675 367.035 204.388 367.473 204.075C371.22 201.379 375.606 199.96 380.266 200.277C392.272 201.089 401.971 213.579 402.538 228.953C403.179 246.289 392.387 260.6 378.987 260.6Z" fill="#184655"/>
<path d="M117.449 574.7C117.449 574.7 116.609 582.174 115.164 584.584C114.679 585.394 113.794 586.417 113.212 587.882C112.307 590.157 112.807 593.548 113.475 595.416C113.818 596.375 113.451 596.372 114.231 596.683C116.542 597.596 119.001 596.057 119.985 593.215C120.535 591.63 121.017 589.513 121.114 586.849C121.361 580.061 123.006 576.611 123.006 576.611L117.449 574.7Z" fill="#F7A491"/>
<path d="M142.727 578.116C142.727 578.116 143.245 586.542 142.824 589.281C142.599 590.75 141.344 593.768 141.919 595.148C142.495 596.528 143.153 596.872 143.153 596.872L158.074 597.183C158.887 597.197 158.35 596.528 157.695 595.909C156.622 594.897 155.756 594.228 152.33 592.101C152.106 591.963 151.293 591.298 150.999 591.068C150.256 590.488 149.508 589.568 148.865 588.651C147.794 587.119 147.7 579.698 147.7 579.698L142.727 578.116Z" fill="#F7A491"/>
<path d="M154.389 465.994C154.389 465.994 156.268 479.685 155.034 488.663C153.801 497.64 147.879 580.855 147.879 580.855L141.299 581.33C141.299 581.33 139.919 546.571 140.166 541.737C140.413 536.903 142.366 528.815 142.366 528.815L141.711 500.749L150.015 463.88L154.389 465.994Z" fill="#355389"/>
<path d="M135.049 463.195C135.049 463.195 129.868 473.202 128.634 481.483C127.4 489.764 129.539 515.211 127.166 526.064C125.881 531.935 121.013 541.009 120.272 548.599C119.532 556.19 116.628 576.071 116.628 576.071L123.206 577.745L138.492 528.089L150.482 483.206L153.554 460.091L135.049 463.195Z" fill="#466EB6"/>
<path d="M139.243 406.279C139.243 406.279 132.383 405.72 129.669 409.514C126.955 413.311 135.69 443.333 136.183 448.164C136.676 452.994 133.667 465.836 133.667 465.836C133.667 465.836 149.783 469.998 154.389 466.088C154.389 466.088 154.882 431.351 154.389 427.901C153.895 424.451 149.783 410.419 148.796 409.039C147.809 407.659 139.243 406.279 139.243 406.279Z" fill="#F7CC7F"/>
<path d="M141.527 394.595C141.527 394.595 141.491 394.852 141.428 395.289C141.122 397.396 139.944 404.388 139.148 406.309C138.187 408.635 142.441 416.039 146.534 415.137C147.753 414.866 145.504 408.332 145.613 407.638C145.819 406.313 146.1 404.505 146.387 402.651C146.549 401.604 146.713 400.544 146.867 399.546C147.305 396.713 147.662 394.397 147.662 394.397L141.527 394.595Z" fill="#F7A491"/>
<path d="M141.428 395.234C141.491 394.79 141.527 394.529 141.527 394.529L147.662 394.329C147.662 394.329 147.305 396.678 146.867 399.553C146.714 400.558 146.551 401.631 146.39 402.685C145.443 402.503 144.453 401.906 143.461 400.78C142.379 399.553 141.67 398.08 141.242 396.503C141.317 395.999 141.38 395.566 141.428 395.234Z" fill="#F47458"/>
<path d="M145.656 376.629C145.656 376.629 142.765 376.201 140.952 379.208C139.139 382.216 137.186 391.516 141.688 396.573C146.191 401.63 150.64 395.904 151.3 389.835C151.96 383.766 152.216 376.409 145.656 376.629Z" fill="#F7A491"/>
<path d="M152.632 389.739C152.094 391.081 151.192 391.824 150.617 391.399C150.042 390.974 150.011 389.541 150.548 388.2C151.086 386.862 151.988 386.119 152.563 386.544C153.138 386.969 153.169 388.398 152.632 389.739Z" fill="#F7A491"/>
<path d="M145.98 375.625C145.98 375.625 142.117 384.468 139.353 384.879C136.589 385.286 136.227 389.985 136.227 389.985C136.227 389.985 137.214 379.157 139.95 377.069C142.686 374.981 145.98 375.625 145.98 375.625Z" fill="#13375B"/>
<path d="M120.433 591.707C116.848 592.546 114.463 589.857 113.222 587.843C112.311 590.122 111.866 593.526 112.537 595.402C113.127 597.054 114.852 597.005 116.21 597.072C117.646 597.139 118.757 596.117 119.47 594.51C119.802 593.763 120.146 592.829 120.433 591.707Z" fill="#F47458"/>
<path d="M150.997 591.069C147.051 592.368 144.134 591.483 142.502 590.641C142.082 592.169 141.524 594.091 141.82 595.195C142.182 596.55 142.698 596.858 143.153 596.872C146.758 596.996 156.356 597.159 159.105 597.205C159.489 597.212 159.7 596.639 159.454 596.26C158.772 595.216 151.291 591.299 150.997 591.069Z" fill="#F47458"/>
<path d="M140.078 387.111C140.302 388.682 139.85 390.123 139.068 390.328C138.285 390.533 137.469 389.429 137.244 387.858C137.02 386.287 137.472 384.846 138.254 384.641C139.036 384.432 139.853 385.54 140.078 387.111Z" fill="#F7A491"/>
<path d="M144.591 392.551L148.079 392.743C148.079 392.743 147.938 394.356 146.403 394.326C144.53 394.289 144.591 392.551 144.591 392.551Z" fill="white"/>
<path d="M442.039 36.5019C442.476 36.5245 443.666 37.0362 445.405 41.2504C447.628 46.631 450.877 62.8857 450.877 62.8857L441.178 67.5138L439.932 64.1199L437.882 37.9995C437.882 37.9995 441.921 36.4982 442.039 36.5019Z" fill="#DD513A"/>
<path d="M429.22 34.166C431.998 34.1735 438.854 35.2093 442.041 36.5105C442.041 36.5105 444.381 62.2482 439.935 81.8047C438.941 86.1834 440.758 99.9553 440.758 99.9553L412.023 99.4692C412.023 99.4692 415.429 66.1782 414.146 60.8011C412.864 55.424 412.832 36.6826 412.832 36.6826C412.832 36.6826 413.03 36.6451 419.288 35.2579C422.206 34.611 426.263 34.1622 429.22 34.166Z" fill="#F47458"/>
<path d="M425.871 147.732C425.871 147.732 426.507 157.126 427.678 159.727C428.847 162.328 427.616 166.747 427.555 167.357C427.493 167.963 425.094 168.827 421.281 168.307C417.464 167.787 417.526 166.661 417.837 164.842C418.142 163.02 420.171 160.681 420.297 158.945C420.417 157.212 419.126 150.971 419.126 150.971L425.871 147.732Z" fill="#F7A491"/>
<path d="M437.516 92.202C437.516 92.202 457.351 90.7909 461.783 94.2313C466.212 97.6717 458.633 114.555 458.633 114.555C458.633 114.555 444.834 113.738 417.799 115.737C411.397 116.211 410.845 94.3324 412.039 92.5208C413.237 90.7132 437.516 92.202 437.516 92.202Z" fill="#E0973F"/>
<path d="M420.806 168.983C416.876 168.448 417.363 165.99 417.677 164.124C417.879 162.957 419.005 161.58 419.677 160.278C420.027 160.635 420.598 161.263 422.304 161.905C424.074 162.572 426.503 161.252 428.051 160.428C428.6 163.04 428.626 166.375 428.572 166.878C428.514 167.503 424.73 169.515 420.806 168.983Z" fill="#DD513A"/>
<path d="M422.973 110.353C423.767 118.031 427.688 156.243 427.688 156.243L418.585 157.689C418.585 157.689 407.387 107.813 407.963 100.184C408.536 92.5526 412.726 91.9122 412.726 91.9122C412.726 91.9122 420.874 90.0338 422.973 110.353Z" fill="#F7CC7F"/>
<path d="M412.521 39.543C415.207 38.2546 416.522 69.2375 416.885 81.9919C421.642 82.5803 429.936 81.9993 431.998 81.7983C432.97 81.7052 435.21 80.655 436.176 80.4949C437.165 80.3273 438.064 80.2417 438.55 80.3497C438.727 80.3906 443.687 82.9862 444.109 83.5559C444.636 84.2598 446.058 86.0435 445.817 86.8107C445.581 87.5815 443.082 84.6657 443.082 84.6657L441.863 83.7905C443.382 85.6897 446.276 88.1885 445.86 89.1009C445.453 89.9872 442.844 87.4511 440.979 85.7195C442.579 87.5666 444.56 90.8697 444.103 91.3873C443.69 91.8491 441.436 88.0247 439.024 86.9224C438.131 86.5165 437.241 87.6448 436.537 87.7826C436.019 87.8831 435.224 88.0954 434.715 87.9129L432.106 86.9633C431.216 87.0676 431.192 87.7416 430.293 87.9837C429.252 88.2704 427.541 88.5683 426.215 88.9817C418.564 91.3762 416.015 92.4859 413.673 92.4822C406.584 92.4784 406.171 42.5929 412.521 39.543Z" fill="#F7A491"/>
<path d="M407.423 68.6267C406.919 55.5632 406.995 39.4596 412.715 36.7141C414.974 35.6286 418.954 42.1454 418.238 68.8916C415.184 69.2161 410.699 69.4735 407.423 68.6267Z" fill="#DD513A"/>
<path d="M452.499 155.749C452.499 155.749 451.702 159.012 453.127 161.167C454.549 163.321 460.458 165.437 461.237 166.607C462.012 167.773 461.952 168.769 461.952 168.769L445.36 168.184L445.544 161.771L446.307 157.161L452.499 155.749Z" fill="#F7A491"/>
<path d="M454.156 162.236C454.156 162.236 449.894 164.447 447.835 163.138C445.775 161.834 445.839 161.47 445.24 161.957C444.647 162.445 444.433 168.457 444.433 168.457L463.086 169.158C464.384 169.119 465.04 167.896 463.988 166.847C463.262 166.131 462.427 165.651 461.952 165.302C460.492 164.23 454.156 162.236 454.156 162.236Z" fill="#DD513A"/>
<path d="M451.868 98.2069C453.151 94.7549 456.068 90.2612 461.2 92.9668C466.093 95.548 467.406 101.896 465.862 108.392C464.318 114.887 454.154 153.08 453.798 158.332L445.681 158.402C445.681 158.402 447.158 128.159 447.52 120.85C447.869 113.814 449.65 104.182 451.868 98.2069Z" fill="#F7CC7F"/>
<path d="M465.047 63.0245H437.913C437.199 63.0245 436.552 63.5805 436.276 64.4358L427.926 90.6028H412.967C412.551 90.6028 412.214 91.0383 412.214 91.5748C412.214 92.1114 412.551 92.5469 412.967 92.5469H455.539C456.709 92.5469 457.769 91.6643 458.246 90.2957L466.659 66.2283C467.185 64.7236 466.328 63.0245 465.047 63.0245Z" fill="black"/>
<path d="M450.435 78.2531C450.253 79.4293 449.455 80.2148 448.653 80.0081C447.852 79.8051 447.35 78.6852 447.532 77.509C447.717 76.3327 448.515 75.5473 449.32 75.754C450.118 75.9607 450.62 77.0806 450.435 78.2531Z" fill="white"/>
<path d="M435.671 2.72239C434.853 2.37087 434.048 1.97198 433.27 1.49407C432.391 0.952974 431.252 0.317072 430.533 0.174887C429.018 -0.125284 426.417 0.0761604 424.979 2.06676C423.193 4.55502 420.012 2.51704 420.654 15.531C421.379 30.2631 427.778 28.6476 427.932 28.3949C428.086 28.146 433.637 18.9711 433.637 18.9711C433.637 18.9711 435.578 24.4097 435.578 24.2083C435.578 24.0147 445.489 6.95637 435.671 2.72239Z" fill="#0E2E35"/>
<path d="M430.811 29.4818L431.363 34.7442C431.363 34.7442 432.601 42.3283 431.011 43.791C429.418 45.2536 424.239 34.5303 424.239 34.5303L424.788 21.1912L430.811 29.4818Z" fill="#F7A491"/>
<path d="M424.609 25.5171C425.924 30.0654 429.057 32.8607 431.28 33.9491L430.811 29.4849L424.788 21.1942L424.609 25.5171Z" fill="#F47458"/>
<path d="M430.483 6.67965C433.858 5.98329 436.883 9.45727 436.798 13.7802C436.764 15.658 436.645 18.0014 436.336 20.5286C435.606 26.6042 432.363 31.956 430.224 31.4787C428.081 31.0014 422.693 25.7591 423.644 17.1133C424.227 11.7733 426.944 7.41122 430.483 6.67965Z" fill="#F7A491"/>
<path d="M425.131 18.1351C424.953 19.4692 424.113 20.3984 423.263 20.2095C422.414 20.0206 421.869 18.7829 422.052 17.4488C422.23 16.1109 423.067 15.1817 423.917 15.3706C424.769 15.5596 425.312 16.7972 425.131 18.1351Z" fill="#F7A491"/>
<path d="M423.914 15.39C423.914 15.39 426.506 16.2133 427.464 14.0843C428.426 11.9514 431.863 7.35239 436.227 9.25788C440.595 11.1673 432.387 4.61962 432.037 4.61962C431.685 4.61962 427.495 4.58432 427.495 4.58432C427.495 4.58432 424.264 7.98754 424.147 8.36001C424.028 8.73641 423.097 12.8101 423.097 12.8101L423.914 15.39Z" fill="#0E2E35"/>
<path d="M428.654 24.2697L433.365 25.4211C433.365 25.4211 432.914 27.6934 430.833 27.2641C428.292 26.7397 428.654 24.2697 428.654 24.2697Z" fill="white"/>
<path d="M348.962 444.207C349.142 444.998 349.244 445.258 349.474 445.789C350.95 449.21 354.378 454.091 354.378 454.091L357.032 446.493C357.032 446.493 356.598 444.105 355.849 440.694C353.289 441.545 350.847 442.038 348.962 444.207Z" fill="#F8A492"/>
<path d="M364.164 437.516C364.164 437.516 349.374 445.67 348.896 445.514C348.589 445.411 342.83 433.075 342.767 421.472C342.739 416.114 347.088 409.666 351.937 410.944C354.381 411.584 354.342 412.455 357.955 419.175C361.568 425.895 364.164 437.516 364.164 437.516Z" fill="#13375B"/>
<path d="M376.787 583.661L376.436 591.11C376.306 592.055 375.797 594.387 375.797 595.247C375.797 598.471 387.756 592.508 385.078 591.078C384.834 590.951 383.563 589.974 383.483 588.877C383.361 587.186 383.049 583.764 383.049 583.764L376.787 583.661Z" fill="#F7A491"/>
<path d="M385.047 591.051C385.047 591.051 382.239 592.035 380.801 592.282C379.364 592.53 377.467 590.453 376.45 591.015C375.33 591.631 375.374 597.187 375.374 597.187C375.374 597.187 390.43 598.769 394.665 597.134C396.343 596.483 390.787 593.347 385.047 591.051Z" fill="#DD513A"/>
<path d="M352.324 583.661L351.97 591.11C351.843 592.055 351.334 594.387 351.334 595.247C351.334 598.471 363.293 592.508 360.612 591.078C360.371 590.951 358.724 589.242 358.644 588.145C358.519 586.457 358.585 583.764 358.585 583.764L352.324 583.661Z" fill="#F7A491"/>
<path d="M360.584 591.064C360.584 591.064 357.775 592.048 356.338 592.296C354.9 592.543 353.004 590.466 351.987 591.029C350.867 591.645 350.823 597.2 350.823 597.2C350.823 597.2 365.947 599.044 370.202 597.147C371.852 596.408 366.323 593.361 360.584 591.064Z" fill="#DD513A"/>
<path d="M355.978 448.268L366.511 429.378C366.556 429.215 366.652 428.876 366.799 428.359C367.33 426.483 368.433 422.584 369.395 418.705L369.403 418.663C369.707 417.307 370.346 414.944 370.965 412.654C371.653 410.11 372.507 406.953 372.538 406.415C372.513 406.323 372.463 406.157 372.397 405.937C372.01 404.656 371.487 401.599 371.302 400.272C371.186 399.426 371.067 397.367 371.855 397.367C373.088 397.367 372.502 399.423 373.071 400.704C373.279 399.847 373.702 398.145 373.926 396.425L374.133 392.409C374.172 392.108 373.92 389.893 374.788 389.893H374.83C375.607 389.967 375.59 392.32 375.913 396.305C376.016 395.845 376.118 395.293 376.195 394.787C376.187 394.514 376.342 393.315 376.458 392.685C376.303 391.574 376.394 389.822 377.318 389.988C377.779 390.07 377.741 392.515 377.741 392.515C377.738 392.848 377.71 395.431 377.724 395.944C377.818 395.077 378.189 391.379 378.913 391.379C379.513 391.379 379.563 392.373 379.549 393.162C379.543 393.626 379.164 397.632 379.145 398.099C379.427 397.49 379.762 393.962 380.044 393.962C381.213 393.962 380.79 398.98 380.359 400.286C380.32 400.42 380.276 400.682 380.226 400.987C380.079 401.882 379.836 403.379 379.222 404.72C378.487 406.33 377.473 408.892 377.318 409.285C377.204 410.085 376.851 412.962 376.408 416.582C376.217 418.128 376.01 419.827 375.794 421.586L375.783 421.582C375.742 421.964 375.524 423.175 374.689 427.715C373.55 433.929 373.431 434.198 373.381 434.311C372.886 435.433 361.53 455.172 361.046 456.014L360.761 456.51L355.978 448.268Z" fill="#F7A491"/>
<path d="M375.568 404.219C375.568 404.219 374.714 401.42 373.193 401.413C373.193 401.413 374.042 401.02 374.772 401.759C375.501 402.499 375.568 404.219 375.568 404.219Z" fill="#F47458"/>
<path d="M353.435 398.813L352.078 409.787C352.078 409.787 357.245 415.099 360.255 413.977C362.782 413.039 361.051 408.811 361.051 408.811C361.051 408.811 359.705 402.95 360.117 399.879C360.529 396.807 353.435 398.813 353.435 398.813Z" fill="#F7A491"/>
<path d="M354.408 402.098C355.702 402.894 358.262 403.975 360.255 404.24C360.064 402.679 359.957 401.032 360.117 399.815C360.308 398.379 358.898 398.038 357.327 398.089C355.268 398.315 353.435 398.735 353.435 398.735L353.172 400.874C353.565 401.409 353.977 401.836 354.408 402.098Z" fill="#FE875E"/>
<path d="M346.914 386.155C346.701 386.155 348.957 398.417 352.448 400.526C355.937 402.635 361.143 401.538 362.118 398.233C363.199 394.581 359.26 382.072 354.35 380.483C349.44 378.894 346.914 386.155 346.914 386.155Z" fill="#F7A491"/>
<path d="M350.953 374.785C348.166 376.851 346.886 379.913 346.455 381.166C345.147 381.965 343.563 383.686 342.803 388.335C341.868 394.046 345.191 398.45 348.713 399.774C352.235 401.098 352.78 404.089 352.78 404.089L353.181 400.87C353.181 400.87 352.396 398.067 351.218 396.661C350.04 395.259 351.776 393.215 351.928 391.547C352.047 390.262 351.309 387.767 351.47 385.659C351.47 385.659 353.427 381.851 355.356 380.911C358.646 379.307 354.53 372.138 350.953 374.785Z" fill="#13375B"/>
<path d="M352.437 393.734C352.893 395.15 352.705 396.558 352.02 396.877C351.334 397.191 350.408 396.303 349.952 394.888C349.496 393.472 349.681 392.064 350.369 391.745C351.055 391.427 351.981 392.319 352.437 393.734Z" fill="#F7A491"/>
<path d="M365.439 448.648L385.755 444.377C385.755 444.377 383.444 436.873 382.617 436.873C381.791 436.873 367.255 445.058 367.255 445.058L366.099 448.049L365.439 448.648Z" fill="#F8A492"/>
<path d="M355.033 466.392C355.033 466.392 353.007 478.934 353.83 488.446C354.657 497.954 354.723 531.735 354.723 531.735L351.569 585.787L359.047 585.995C359.047 585.995 367.916 531.969 367.75 533.356C367.587 534.743 370.724 495.318 370.724 495.318L360.153 465.203L355.033 466.392Z" fill="#184655"/>
<path d="M357.015 465.795C357.015 465.795 355.694 477.087 357.344 482.041C358.997 486.996 371.512 535.594 371.678 539.553C371.844 543.517 376.005 587.313 376.005 587.313L384.699 587.001L386.582 538.308L382.642 477.108L378.819 461.633L357.015 465.795Z" fill="#13375B"/>
<path d="M352.078 409.748C352.078 409.748 354.223 411.489 356.222 411.287C358.223 411.089 361.051 408.804 361.051 408.804L360.656 407.155C360.656 407.155 355.484 406.222 355.354 406.324C355.224 406.423 352.078 409.748 352.078 409.748Z" fill="#F7A491"/>
<path d="M374.932 436.517C374.932 436.517 382.617 445.897 386.087 444.295C389.556 442.694 390.991 437.221 382.526 429.214C374.951 422.047 374.932 436.517 374.932 436.517Z" fill="#F8A492"/>
<path d="M380.14 447.977C378.999 440.029 370.724 415.289 370.064 410.731C369.743 408.516 365.278 408.467 361.029 408.757C356.54 409.061 352.078 409.787 352.078 409.787C352.078 409.787 348.102 410.625 346.355 412.72C344.605 414.819 344.141 420.619 346.654 431.631C348.639 440.326 351.099 445.1 352.318 451.431C352.564 453.554 352.774 455.649 353.056 458.098C353.502 467.568 353.051 480.074 353.051 480.074C353.051 480.074 374.689 485.821 382.783 477.101C382.783 477.101 381.31 456.123 380.14 447.977Z" fill="#355389"/>
<path d="M385.655 430.886C385.655 430.886 377.166 439.857 376.671 439.857C376.353 439.857 364.554 428.749 361.831 419.622C360.327 414.576 363.484 408.932 367.089 408.949C369.591 408.964 370.702 409.788 375.656 415.135C380.613 420.486 385.655 430.886 385.655 430.886Z" fill="#466EB6"/>
<path d="M236.293 30.4117C237.684 26.1273 239.1 21.8314 242.71 19.6624C245.631 17.9041 248.684 18.5644 251.28 21.0636C258.636 28.1428 252.225 35.9437 260.599 49.3726C263.2 53.5418 266.349 56.9125 267.908 61.7996C270.089 68.6446 267.491 71.9307 263.325 75.2054C243.396 90.8879 232.949 58.6899 233.324 51.3267C233.604 45.8484 235.397 33.1719 236.293 30.4117Z" fill="#13375B"/>
<path d="M215.612 113.91C216.452 113.741 218.492 111.868 219.213 111.696C219.771 111.566 220.978 111.33 221.493 111.233C222.123 108.218 225.324 91.7779 225.683 86.9582C226.071 81.7401 228.953 59.1559 228.953 59.1559L236.415 60.8929C236.415 60.8929 233.316 78.2662 232.459 86.6926C231.723 93.9276 225.526 110.195 224.738 111.911C224.737 111.954 224.737 111.993 224.734 112.037C224.614 114.592 223.654 113.741 223.654 113.741L222.094 114.251C222.094 114.251 216.572 114.933 216.212 115.101C215.852 115.27 214.771 114.079 215.612 113.91Z" fill="#F7A491"/>
<path d="M235.459 45.9399C230.184 48.2303 227.185 66.6046 227.185 66.6046C227.185 66.6046 235.461 69.5666 237.582 68.014C237.582 68.014 239.988 54.3452 240.85 54.8224L235.459 45.9399Z" fill="#6A97CE"/>
<path d="M194.656 145.573C193.042 151.023 192.204 156.271 192.129 156.904C192.093 157.212 192.429 158.691 192.398 159.01C189.158 164.665 184.502 165.903 180.511 166.264C182.545 163.723 185.532 161.313 185.675 160.506C185.904 159.225 187.133 153.521 187.737 145.612C190.22 147.084 191.904 145.916 194.656 145.573Z" fill="#F7A491"/>
<path d="M240.563 84.608L247.691 110.31C247.691 110.31 236.236 113.07 231.953 114.075C227.671 115.08 203.742 116.418 203.136 116.963C202.686 117.366 197.743 137.831 195.535 149.113C193.03 149.82 188.742 148.971 186.461 147.966C187.693 131.819 192.145 106.24 193.57 103.455C195.892 98.9223 240.563 84.608 240.563 84.608Z" fill="#256653"/>
<path d="M212.715 156.803C211.927 162.549 211.873 167.917 211.892 168.558C211.9 168.87 212.448 170.246 212.464 170.565C210.109 176.911 205.717 179.247 201.849 180.562C203.475 177.57 206.057 174.482 206.08 173.656C206.117 172.341 206.488 166.428 205.924 158.504C208.578 159.352 210.062 157.802 212.715 156.803Z" fill="#F7A491"/>
<path d="M248.884 85.9562L251.651 92.0039C255.859 101.213 252.633 113.061 244.865 116.92C244.823 116.942 244.782 116.963 244.741 116.984C240.682 118.999 217.373 126.059 216.857 126.739C216.474 127.242 214.614 148.543 214.097 160.164C211.74 161.456 207.404 161.655 205.017 161.212C203.863 145.048 204.491 118.84 205.484 115.759C207.1 110.745 248.884 85.9562 248.884 85.9562Z" fill="#327F6B"/>
<path d="M211.534 168.76C212.155 167.882 214.433 172.713 215.002 173.743C215.643 174.9 215.461 175.774 215.384 175.954C215.182 176.432 203.167 185.481 200.237 186.125C199.96 186.185 199.481 185.962 199.36 185.827C198.215 184.529 203.486 174.946 205.853 173.689C207.382 172.876 208.742 172.706 211.534 168.76Z" fill="#13375B"/>
<path d="M191.745 157.076C192.484 156.363 194.015 161.669 194.423 162.819C194.883 164.114 194.576 164.934 194.474 165.094C194.205 165.516 181.079 171.54 178.106 171.469C177.826 171.462 177.387 171.124 177.289 170.961C176.354 169.41 182.934 161.236 185.443 160.565C187.065 160.132 188.425 160.295 191.745 157.076Z" fill="#13375B"/>
<path d="M240.461 45.8961H240.461C240.324 45.8961 240.129 45.8337 239.929 45.7566C238.949 45.5289 236.807 45.2022 235.141 46.1017C233.114 47.1958 229.973 57.4246 230.16 67.9251C230.235 69.5296 230.311 70.9651 230.376 71.9674C230.887 79.8979 232.665 94.7785 232.761 94.8556C235.178 96.8492 249.766 89.1281 250.769 87.4318C251.773 85.7319 252.364 65.1201 252.851 64.0921L253.81 46.1678C252.118 45.5216 243.055 45.8704 240.461 45.8961Z" fill="#9BC1F9"/>
<path d="M246.374 39.281C246.374 39.281 245.435 45.5107 245.623 47.9683C245.811 50.4296 244.906 58.3513 240.85 58.3774C236.793 58.3998 240.08 48.3044 240.462 45.8954C240.844 43.4864 240.934 36.0316 240.934 36.0316L246.374 39.281Z" fill="#F7A491"/>
<path d="M240.851 39.7832C240.914 37.7441 240.935 36.0481 240.935 36.0481L246.374 39.2911C246.374 39.2911 246.182 40.5622 245.989 42.1838C243.608 42.7951 241.882 41.6694 240.851 39.7832Z" fill="#F47458"/>
<path d="M248.362 22.1282C248.362 22.1282 250.458 23.6151 251.223 26.8419C251.992 30.0688 251.118 38.3926 245.704 40.4046C240.289 42.4127 237.943 35.8211 239.059 30.6666C240.174 25.5121 242.6 18.9857 248.362 22.1282Z" fill="#F7A491"/>
<path d="M238.38 28.6748C238.487 30.0521 239.083 31.1049 239.713 31.0294C240.343 30.9502 240.768 29.7691 240.662 28.3881C240.555 27.0108 239.959 25.958 239.329 26.0372C238.699 26.1165 238.275 27.2976 238.38 28.6748Z" fill="#F7A491"/>
<path d="M247.727 21.705C247.727 21.705 248.707 30.9802 251.054 32.6532C253.399 34.3261 252.417 38.4417 252.417 38.4417C252.417 38.4417 254.546 28.8882 252.691 25.8205C250.836 22.7529 247.727 21.705 247.727 21.705Z" fill="#13375B"/>
<path d="M249.664 33.9996C249.028 35.2111 249.031 36.6365 249.67 37.1879C250.308 37.7392 251.343 37.2028 251.978 35.9913C252.614 34.7835 252.614 33.3544 251.973 32.8068C251.334 32.2554 250.3 32.7918 249.664 33.9996Z" fill="#F7A491"/>
<path d="M241.776 34.5241L245.593 35.7536C245.593 35.7536 245.134 37.6071 243.443 37.1325C241.382 36.5495 241.776 34.5241 241.776 34.5241Z" fill="white"/>
<path d="M260.722 113.076C260.904 113.065 277.173 112.017 277.173 112.017C277.173 112.017 270.422 118.228 270.284 118.228C270.146 118.228 264.907 115.581 264.678 115.581C264.448 115.581 260.722 113.076 260.722 113.076Z" fill="#50BFA5"/>
<path d="M590.098 583.969L590.425 591.287C590.543 592.215 591.01 594.508 591.01 595.35C591.01 598.517 580.032 592.661 582.493 591.259C582.713 591.132 583.879 590.169 583.955 589.093C584.069 587.43 584.353 584.072 584.353 584.072L590.098 583.969Z" fill="#F7A491"/>
<path d="M582.387 591.303C582.387 591.303 584.967 592.269 586.285 592.513C587.607 592.754 589.343 590.716 590.278 591.268C591.307 591.873 591.265 597.329 591.265 597.329C591.265 597.329 577.445 598.883 573.559 597.276C572.02 596.639 577.118 593.557 582.387 591.303Z" fill="#F7CC7F"/>
<path d="M608.376 583.602L608.704 590.92C608.821 591.847 609.287 594.141 609.287 594.983C609.287 598.15 598.31 592.293 600.768 590.892C600.991 590.765 602.504 589.087 602.578 588.008C602.692 586.348 602.633 583.705 602.633 583.705L608.376 583.602Z" fill="#F7A491"/>
<path d="M600.801 590.848C600.801 590.848 603.375 591.817 604.698 592.058C606.016 592.302 607.757 590.264 608.692 590.812C609.717 591.421 609.76 596.878 609.76 596.878C609.76 596.878 596.036 597.6 591.971 596.824C590.371 596.52 595.531 593.105 600.801 590.848Z" fill="#F7CC7F"/>
<path d="M605.126 467.579C605.126 467.579 606.986 479.902 606.228 489.247C605.47 498.59 605.412 531.78 605.412 531.78L608.908 584.865L601.438 585.088C601.438 585.088 593.3 532.01 593.449 533.372C593.601 534.735 590.722 495.999 590.722 495.999L600.422 466.412L605.126 467.579Z" fill="#355389"/>
<path d="M602.519 459.615C602.519 459.615 610.95 470.978 607.814 483.389C606.556 488.375 594.809 536.003 594.657 539.895C594.508 543.788 590.686 586.816 590.686 586.816L582.706 586.508L580.978 538.667L583.259 474.209L588.103 463.338L602.519 459.615Z" fill="#466EB6"/>
<path d="M551.354 422.631C554.117 418.688 560.121 413.08 560.121 413.08C560.121 413.08 563.699 409.169 565.155 408.525C567.305 407.577 570.98 405.05 576.302 415.369C580.106 422.754 604.129 460.991 608.07 462.275L582.322 478.044C581.616 470.513 568.893 456.284 567.063 453.63C562.966 447.699 548.74 426.364 551.354 422.631Z" fill="#F47458"/>
<path d="M552.555 406.617L560.573 412.626C560.573 412.626 560.801 421.392 558.178 423.667C555.975 425.578 554.303 420.992 554.303 420.992C554.303 420.992 551.32 415.701 549.055 414.056C546.791 412.407 552.555 406.617 552.555 406.617Z" fill="#F7A491"/>
<path d="M553.898 410.464C553.598 412.293 552.902 414.937 551.816 417.113C550.934 415.889 549.941 414.689 549.056 414.045C548.009 413.284 548.677 411.642 549.695 410.092C551.134 408.174 552.555 406.606 552.555 406.606L554.095 407.76C554.195 408.51 554.002 409.855 553.898 410.464Z" fill="#F47458"/>
<path d="M548.377 391.554C548.513 391.342 555.105 401.849 554.293 406.774C553.481 411.704 549.493 416.198 546.724 414.963C543.659 413.594 537.961 401.225 540.003 395.22C542.049 389.219 548.377 391.554 548.377 391.554Z" fill="#F7A491"/>
<path d="M541.155 388.242C544.032 386.193 548.719 385.606 552.224 387.956C556.531 390.84 557.511 398.104 556.161 402.535C554.814 406.966 556.358 409.468 556.358 409.468L554.07 407.762C554.07 407.762 552.738 405.094 552.562 402.97C552.389 400.844 549.965 401.222 548.787 400.256C547.875 399.513 546.711 397.103 545.239 395.85C545.239 395.85 541.532 395.27 539.708 396.579C536.597 398.812 537.039 391.172 541.155 388.242Z" fill="#13375B"/>
<path d="M550.639 401.986C550.617 403.585 551.202 404.892 551.94 404.91C552.679 404.924 553.296 403.642 553.317 402.04C553.338 400.441 552.754 399.13 552.015 399.116C551.277 399.102 550.664 400.384 550.639 401.986Z" fill="#F7A491"/>
<path d="M543.885 410.464L547.378 407.054C547.378 407.054 548.3 408.9 546.798 410.457C544.967 412.357 543.885 410.464 543.885 410.464Z" fill="white"/>
<path d="M535.12 476.859C535.996 475.224 536.375 472.864 537.586 471.063C537.991 470.457 538.638 469.778 539.374 469.099C545.189 464.742 560.341 453.514 560.93 452.643C561.629 451.61 571.967 429.62 571.967 429.62L562.682 426.927L553.606 447.441C552.848 448.209 538.44 461.84 538.44 461.84C538.44 461.84 535.576 464.703 534.009 466.045C533.221 466.635 532.452 467.018 531.782 467.318C530.936 467.693 529.327 468.723 529 469.088C528.621 469.516 527.863 470.426 527.414 470.981C526.965 471.54 526.42 472.166 526.21 472.499C526.078 472.701 525.68 472.977 525.389 473.165C524.951 473.441 525.01 474.265 525.478 474.435C525.919 474.594 526.516 474.24 526.884 474.021C527.929 473.391 529.202 471.7 529.268 471.904C529.335 472.114 528.043 475.741 527.914 476.169C527.789 476.597 526.302 480.826 526.225 481.767C526.151 482.712 526.593 482.928 526.924 482.585C527.207 482.287 529.596 476.64 529.596 476.64C529.596 476.64 529.905 475.921 530.023 476.332C530.141 476.746 527.98 481.877 527.767 482.719C527.557 483.561 527.726 484.251 528.334 483.958C529.077 483.597 531.12 477.938 531.12 477.938C531.12 477.938 531.385 477.234 531.565 477.478C531.745 477.723 529.854 482.051 529.831 482.549C529.809 483.048 530.163 483.54 530.674 483.123C531.274 482.631 533.063 477.56 533.063 477.56C533.063 477.56 533.287 477.224 533.353 477.461C533.423 477.694 532.014 481.534 532.121 482.093C532.209 482.564 532.54 482.468 532.54 482.468C533.276 482.468 534.248 478.494 535.12 476.859Z" fill="#F8A492"/>
<path d="M569.421 441.153C569.421 441.153 566.397 439.928 564.458 438.794C563.162 438.037 557.493 434.446 557.493 434.446C557.493 434.446 559.938 421.32 561.587 416.599C567.649 399.28 574.536 411.226 575.472 414.011C577.563 420.236 569.421 441.153 569.421 441.153Z" fill="#355389"/>
<path d="M358.179 395.584L361.057 392.966C361.057 392.966 361.82 394.381 360.581 395.577C359.072 397.036 358.179 395.584 358.179 395.584Z" fill="white"/>
<path d="M696.044 596.926H27.3933C26.5575 596.926 25.8801 598.034 25.8801 599.4C25.8801 600.766 26.5575 601.87 27.3933 601.87H696.044C696.881 601.87 697.558 600.766 697.558 599.4C697.558 598.034 696.881 596.926 696.044 596.926Z" fill="#184655"/>
<path d="M277.545 111.995C277.478 111.773 277.324 111.769 277.169 111.762C275.661 111.705 274.152 111.615 272.657 111.331C272.404 111.281 272.157 111.209 271.927 111.094C271.512 110.879 271.103 110.886 270.679 111.033C270.452 111.116 270.219 111.13 269.987 111.127C269.226 111.123 267.061 110.182 265.95 109.931C265.695 109.874 265.493 109.629 265.429 109.31C264.335 103.767 261.987 91.3335 261.684 87.2442C261.295 82.0168 258.473 58.4432 258.473 58.4432L250.927 61.1359C250.927 61.1359 254.03 78.5379 254.891 86.975C255.553 93.4913 260.641 107.317 262.237 111.292C263.014 114.25 264.764 114.333 265.168 114.397C265.398 114.433 265.614 114.577 265.765 114.807C266.04 115.216 266.354 115.575 266.716 115.866C266.985 116.081 267.19 116.365 267.367 116.695C267.687 117.295 267.976 117.919 268.259 118.548C268.45 118.964 268.646 119.093 268.924 118.996C269.224 118.892 269.367 118.609 269.361 118.142C269.353 117.453 269.179 116.828 268.909 116.239C268.654 115.686 268.674 115.367 268.968 114.86C269.139 114.566 269.313 114.286 269.535 114.053C269.762 113.816 270.001 113.64 270.309 113.694C270.85 113.866 271.397 114.006 271.953 114.085L272.41 114.203L272.659 114.272C272.696 114.286 273.501 114.397 273.776 114.397C273.997 114.397 274.354 114.419 274.656 114.437C274.934 114.455 275.517 114.268 275.537 114.268C275.804 114.261 276.042 114.139 276.241 113.909C276.322 113.812 276.401 113.708 276.359 113.546C276.322 113.399 276.233 113.338 276.115 113.313C275.935 113.27 274.999 113.123 275.007 113.072C275.285 113.072 276.157 113.047 276.435 113.037C276.81 113.026 277.133 112.853 277.394 112.498C277.498 112.358 277.615 112.218 277.545 111.995Z" fill="#F7A491"/>
<path d="M253.902 46.1423C257.626 45.2759 260.699 66.6089 260.699 66.6089C260.699 66.6089 252.423 69.5642 250.303 68.015C250.303 68.015 247.896 54.3583 247.034 54.8356L253.902 46.1423Z" fill="#9BC1F9"/>
<path d="M163.838 429.579C164.084 428.674 160.649 427.945 160.466 427.032C160.283 426.115 164.804 426.044 164.965 425.241C165.264 423.762 160.011 424.93 160.114 424.236C160.218 423.546 165.588 421.999 165.008 420.81C164.427 419.621 159.57 423.157 159.423 422.353C159.276 421.546 164.171 419.586 164.083 417.817C164.036 416.872 156.049 422.527 155.123 422.014C154.196 421.5 156.119 417.063 155.382 416.401C154.644 415.743 152.527 425.425 152.018 425.747C151.511 426.069 140.719 433.953 136.879 435.206C136.413 433.561 135.405 431.342 134.994 429.785C132.84 431.745 131.24 432.732 129.017 434.52C130.628 439.686 132.92 445.345 134.043 445.996C137.459 447.97 150.675 433.939 153.313 431.54C155.953 429.137 157.464 429.916 159.249 429.155C161.034 428.398 163.591 430.482 163.838 429.579Z" fill="#F7A491"/>
<path d="M128.556 436.92C128.556 436.92 125.597 420.248 126.111 415.41C126.624 410.573 131.128 406.067 134.249 407.736C137.37 409.412 138.784 432.686 138.784 432.686L128.556 436.92Z" fill="#F7CC7F"/>
</svg>
