<svg width="1030" height="1030" viewBox="0 0 1030 1030" fill="none" xmlns="http://www.w3.org/2000/svg">
<g filter="url(#filter0_f_64_76)">
<circle cx="515" cy="515" r="165" fill="#0858A1"/>
</g>
<path d="M544.089 528.677C544.061 528.677 544.029 528.676 544 528.675C543.97 528.676 543.938 528.677 543.91 528.677C536.339 528.677 529.669 526.761 525.727 530.38C523.364 532.552 522.369 535.169 522.369 537.986C522.369 549.755 531.799 551.2 543.909 551.2H544.089C556.199 551.2 565.628 549.754 565.628 537.986C565.628 535.167 564.633 532.552 562.271 530.38C558.329 526.761 551.659 528.677 544.089 528.677ZM533.793 544.76C531.489 544.76 529.621 542.172 529.621 538.981C529.621 535.79 531.489 533.204 533.793 533.204C536.097 533.204 537.967 535.79 537.967 538.981C537.967 542.172 536.097 544.76 533.793 544.76ZM554.206 544.76C551.901 544.76 550.031 542.172 550.031 538.981C550.031 535.79 551.901 533.204 554.206 533.204C556.509 533.204 558.378 535.79 558.378 538.981C558.378 542.172 556.51 544.76 554.206 544.76ZM544 468C510.309 468 483 495.31 483 529C483 562.69 510.309 590 544 590C577.689 590 605 562.69 605 529C605 495.31 577.689 468 544 468ZM549.564 554.037C548.471 554.037 546.298 554.039 544 554.042C541.701 554.039 539.527 554.037 538.435 554.037C533.602 554.037 514.463 553.667 514.463 530.596C514.463 525.288 516.283 521.404 519.261 518.17C518.785 516.997 518.761 510.335 521.297 503.958C521.297 503.958 527.112 504.596 535.911 510.634C537.755 510.124 540.878 509.87 544 509.87C547.12 509.87 550.242 510.123 552.089 510.634C560.887 504.596 566.701 503.958 566.701 503.958C569.236 510.335 569.213 516.997 568.738 518.17C571.717 521.404 573.537 525.289 573.537 530.596C573.537 553.667 554.397 554.037 549.564 554.037Z" fill="white"/>
<path d="M603.975 426.157V425.444H484.546L424.626 529.23L484.546 633.015H604.387L664.308 529.23L604.386 425.444H603.975V426.157L603.358 426.513L662.662 529.23L603.564 631.59H485.369L426.271 529.23L485.369 426.869H603.975V426.157L603.358 426.513L603.975 426.157Z" fill="#47A2DF"/>
<path d="M597.412 437.524V434.673H489.875L435.283 529.23L489.875 623.786H599.058L653.65 529.23L599.058 434.673H597.412V437.524L594.943 438.949L647.066 529.23L595.767 618.085H493.166L441.865 529.23L493.166 440.374H597.412V437.524Z" fill="#47A2DF"/>
<path d="M431.268 586.351L407.486 624.633L421.788 650.578L423.037 649.89L409.138 624.676L432.48 587.102L431.268 586.351Z" fill="#47A2DF"/>
<path d="M433.868 566.762L394.617 629.944L407.69 653.435L408.935 652.742L396.271 629.984L435.08 567.513L433.868 566.762Z" fill="#47A2DF"/>
<path d="M435.269 586.727C435.269 588.602 433.748 590.121 431.874 590.121C429.998 590.121 428.479 588.602 428.479 586.727C428.479 584.852 429.998 583.332 431.874 583.332C433.748 583.332 435.269 584.852 435.269 586.727Z" fill="#47A2DF"/>
<path d="M437.869 567.136C437.869 569.012 436.348 570.531 434.474 570.531C432.599 570.531 431.079 569.012 431.079 567.136C431.079 565.262 432.599 563.742 434.474 563.742C436.348 563.742 437.869 565.262 437.869 567.136Z" fill="#47A2DF"/>
<path d="M455.778 617.59C455.778 619.465 454.259 620.985 452.383 620.985C450.509 620.985 448.989 619.465 448.989 617.59C448.989 615.714 450.509 614.194 452.383 614.194C454.259 614.194 455.778 615.714 455.778 617.59Z" fill="#47A2DF"/>
<path d="M387.817 735.304C387.817 737.178 386.296 738.699 384.422 738.699C382.546 738.699 381.027 737.178 381.027 735.304C381.027 733.428 382.546 731.909 384.422 731.909C386.296 731.909 387.817 733.428 387.817 735.304Z" fill="#47A2DF"/>
<path d="M371.025 782.78C371.025 784.656 369.506 786.175 367.63 786.175C365.756 786.175 364.235 784.656 364.235 782.78C364.235 780.906 365.756 779.387 367.63 779.387C369.506 779.387 371.025 780.906 371.025 782.78Z" fill="#47A2DF"/>
<path d="M368.247 783.136L469.942 606.997L468.707 606.284L367.013 782.424" fill="#47A2DF"/>
<path d="M385.039 735.66L453 617.947L451.766 617.234L383.805 734.947" fill="#47A2DF"/>
<path d="M321.335 826.729L423.03 650.59L421.795 649.877L320.101 826.016" fill="#47A2DF"/>
<path d="M307.234 829.584L408.93 653.445L407.696 652.732L306 828.871" fill="#47A2DF"/>
<path d="M551.491 655.447L530.264 694.253L501.476 694.558L501.491 695.983L531.114 695.67L552.742 656.131L551.491 655.447Z" fill="#47A2DF"/>
<path d="M567.268 643.544L531.975 708.066L505.93 708.238L505.94 709.664L532.823 709.487L568.518 644.228L567.268 643.544Z" fill="#47A2DF"/>
<path d="M550.446 652.831C548.814 653.755 548.238 655.826 549.161 657.459C550.084 659.091 552.155 659.666 553.787 658.744C555.42 657.82 555.996 655.749 555.072 654.118C554.15 652.485 552.079 651.909 550.446 652.831Z" fill="#47A2DF"/>
<path d="M566.223 640.931C564.589 641.852 564.015 643.925 564.937 645.557C565.859 647.19 567.93 647.766 569.562 646.842C571.196 645.92 571.772 643.849 570.849 642.216C569.926 640.584 567.855 640.008 566.223 640.931Z" fill="#47A2DF"/>
<path d="M513.487 650.16C511.853 651.084 511.279 653.155 512.2 654.788C513.123 656.42 515.194 656.995 516.826 656.073C518.46 655.149 519.034 653.078 518.113 651.448C517.19 649.814 515.119 649.238 513.487 650.16Z" fill="#47A2DF"/>
<path d="M444.442 767.244C442.81 768.167 442.235 770.239 443.158 771.87C444.079 773.503 446.15 774.079 447.783 773.155C449.415 772.233 449.991 770.162 449.069 768.528C448.147 766.896 446.076 766.322 444.442 767.244Z" fill="#47A2DF"/>
<path d="M413.655 808.54L516.968 633.344L515.74 632.62L412.427 807.816" fill="#47A2DF"/>
<path d="M446.727 770.561L515.77 653.48L514.543 652.756L445.499 769.837" fill="#47A2DF"/>
<path d="M398.785 870.829L502.097 695.633L500.87 694.909L397.558 870.105" fill="#47A2DF"/>
<path d="M403.236 884.509L506.548 709.313L505.321 708.589L402.009 883.785" fill="#47A2DF"/>
<path d="M657.732 472.158L681.514 433.876L667.212 407.931L665.963 408.619L679.863 433.833L656.52 471.407L657.732 472.158Z" fill="#47A2DF"/>
<path d="M655.132 491.749L694.383 428.565L681.311 405.075L680.065 405.769L692.731 428.527L653.922 490.996L655.132 491.749Z" fill="#47A2DF"/>
<path d="M653.731 471.783C653.731 469.907 655.252 468.388 657.126 468.388C659.002 468.388 660.523 469.907 660.523 471.783C660.523 473.657 659.002 475.178 657.126 475.178C655.252 475.178 653.731 473.657 653.731 471.783Z" fill="#47A2DF"/>
<path d="M651.133 491.373C651.133 489.497 652.652 487.978 654.528 487.978C656.402 487.978 657.923 489.497 657.923 491.373C657.923 493.249 656.402 494.768 654.528 494.768C652.652 494.768 651.133 493.249 651.133 491.373Z" fill="#47A2DF"/>
<path d="M633.221 440.919C633.221 439.045 634.741 437.524 636.616 437.524C638.493 437.524 640.012 439.045 640.012 440.919C640.012 442.795 638.493 444.315 636.616 444.315C634.741 444.315 633.221 442.795 633.221 440.919Z" fill="#47A2DF"/>
<path d="M701.183 323.205C701.183 321.331 702.704 319.81 704.578 319.81C706.454 319.81 707.975 321.331 707.975 323.205C707.975 325.081 706.454 326.602 704.578 326.602C702.704 326.602 701.183 325.081 701.183 323.205Z" fill="#47A2DF"/>
<path d="M717.975 275.727C717.975 273.853 719.496 272.332 721.37 272.332C723.246 272.332 724.765 273.853 724.765 275.727C724.765 277.603 723.246 279.123 721.37 279.123C719.496 279.123 717.975 277.603 717.975 275.727Z" fill="#47A2DF"/>
<path d="M720.753 275.371L619.06 451.512L620.294 452.225L721.987 276.084" fill="#47A2DF"/>
<path d="M703.961 322.849L635.999 440.563L637.233 441.275L705.196 323.562" fill="#47A2DF"/>
<path d="M767.665 231.78L665.97 407.92L667.205 408.632L768.899 232.493" fill="#47A2DF"/>
<path d="M781.766 228.925L680.071 405.065L681.306 405.777L783 229.638" fill="#47A2DF"/>
<path d="M537.508 403.062L558.735 364.255L587.524 363.951L587.51 362.526L557.886 362.839L536.258 402.378L537.508 403.062Z" fill="#47A2DF"/>
<path d="M521.734 414.964L557.025 350.443L583.069 350.271L583.06 348.846L556.177 349.024L520.484 414.281L521.734 414.964Z" fill="#47A2DF"/>
<path d="M538.554 405.676C540.186 404.754 540.762 402.683 539.84 401.051C538.916 399.419 536.845 398.843 535.213 399.765C533.58 400.687 533.005 402.758 533.928 404.392C534.851 406.024 536.922 406.6 538.554 405.676Z" fill="#47A2DF"/>
<path d="M522.779 417.578C524.411 416.656 524.987 414.585 524.063 412.953C523.141 411.319 521.07 410.744 519.436 411.667C517.806 412.589 517.23 414.66 518.152 416.292C519.074 417.926 521.147 418.502 522.779 417.578Z" fill="#47A2DF"/>
<path d="M446.704 471.342C448.338 470.42 448.912 468.348 447.989 466.716C447.068 465.084 444.997 464.508 443.363 465.43C441.731 466.352 441.156 468.425 442.078 470.057C443 471.69 445.072 472.264 446.704 471.342Z" fill="#47A2DF"/>
<path d="M575.514 408.348C577.148 407.425 577.722 405.354 576.8 403.722C575.877 402.09 573.806 401.514 572.174 402.436C570.542 403.358 569.966 405.429 570.888 407.063C571.811 408.695 573.882 409.271 575.514 408.348Z" fill="#47A2DF"/>
<path d="M644.559 291.265C646.19 290.343 646.765 288.272 645.843 286.64C644.92 285.007 642.849 284.431 641.217 285.354C639.585 286.276 639.009 288.347 639.931 289.979C640.855 291.613 642.926 292.187 644.559 291.265Z" fill="#47A2DF"/>
<path d="M677.631 253.288C679.263 252.365 679.839 250.294 678.915 248.662C677.994 247.028 675.921 246.454 674.29 247.376C672.657 248.298 672.081 250.369 673.004 252.003C673.926 253.635 675.997 254.211 677.631 253.288Z" fill="#47A2DF"/>
<path d="M675.346 249.97L572.034 425.165L573.261 425.889L676.574 250.694" fill="#47A2DF"/>
<path d="M642.274 287.946L573.231 405.03L574.458 405.754L643.501 288.671" fill="#47A2DF"/>
<path d="M690.217 187.682L586.903 362.877L588.132 363.601L691.444 188.406" fill="#47A2DF"/>
<path d="M685.764 174L582.45 349.196L583.679 349.92L686.991 174.724" fill="#47A2DF"/>
<defs>
<filter id="filter0_f_64_76" x="0" y="0" width="1030" height="1030" filterUnits="userSpaceOnUse" color-interpolation-filters="sRGB">
<feFlood flood-opacity="0" result="BackgroundImageFix"/>
<feBlend mode="normal" in="SourceGraphic" in2="BackgroundImageFix" result="shape"/>
<feGaussianBlur stdDeviation="175" result="effect1_foregroundBlur_64_76"/>
</filter>
</defs>
</svg>
