<svg width="896" height="947" viewBox="0 0 896 947" fill="none" xmlns="http://www.w3.org/2000/svg">
<g filter="url(#filter0_f_57_144)">
<circle cx="515" cy="515" r="165" fill="#0858A1"/>
</g>
<path d="M581.975 413.157V412.444H462.546L402.626 516.23L462.546 620.015H582.387L642.308 516.23L582.386 412.444H581.975V413.157L581.358 413.513L640.662 516.23L581.564 618.59H463.369L404.271 516.23L463.369 413.869H581.975V413.157L581.358 413.513L581.975 413.157Z" fill="#47A2DF"/>
<path d="M575.412 424.524V421.673H467.875L413.283 516.23L467.875 610.786H577.058L631.65 516.23L577.058 421.673H575.412V424.524L572.943 425.949L625.066 516.23L573.767 605.085H471.166L419.865 516.23L471.166 427.374H575.412V424.524Z" fill="#47A2DF"/>
<path d="M409.268 573.351L385.487 611.633L399.788 637.578L401.037 636.89L387.139 611.676L410.48 574.102L409.268 573.351Z" fill="#47A2DF"/>
<path d="M411.868 553.762L372.617 616.944L385.69 640.435L386.935 639.742L374.271 616.984L413.08 554.513L411.868 553.762Z" fill="#47A2DF"/>
<path d="M413.269 573.728C413.269 575.602 411.748 577.121 409.874 577.121C407.998 577.121 406.479 575.602 406.479 573.728C406.479 571.852 407.998 570.332 409.874 570.332C411.748 570.332 413.269 571.852 413.269 573.728Z" fill="#47A2DF"/>
<path d="M415.869 554.136C415.869 556.012 414.348 557.531 412.474 557.531C410.599 557.531 409.079 556.012 409.079 554.136C409.079 552.262 410.599 550.743 412.474 550.743C414.348 550.743 415.869 552.262 415.869 554.136Z" fill="#47A2DF"/>
<path d="M433.778 604.59C433.778 606.465 432.259 607.985 430.383 607.985C428.509 607.985 426.989 606.465 426.989 604.59C426.989 602.714 428.509 601.194 430.383 601.194C432.259 601.194 433.778 602.714 433.778 604.59Z" fill="#47A2DF"/>
<path d="M365.817 722.304C365.817 724.178 364.296 725.699 362.422 725.699C360.546 725.699 359.027 724.178 359.027 722.304C359.027 720.428 360.546 718.909 362.422 718.909C364.296 718.909 365.817 720.428 365.817 722.304Z" fill="#47A2DF"/>
<path d="M349.025 769.78C349.025 771.656 347.506 773.175 345.63 773.175C343.756 773.175 342.235 771.656 342.235 769.78C342.235 767.906 343.756 766.387 345.63 766.387C347.506 766.387 349.025 767.906 349.025 769.78Z" fill="#47A2DF"/>
<path d="M346.247 770.136L447.942 593.997L446.707 593.284L345.013 769.424" fill="#47A2DF"/>
<path d="M363.039 722.66L431 604.947L429.766 604.234L361.805 721.947" fill="#47A2DF"/>
<path d="M299.335 813.729L401.03 637.589L399.795 636.877L298.101 813.016" fill="#47A2DF"/>
<path d="M285.234 816.584L386.93 640.444L385.696 639.732L284 815.871" fill="#47A2DF"/>
<path d="M529.491 642.447L508.264 681.253L479.476 681.558L479.491 682.983L509.114 682.67L530.742 643.131L529.491 642.447" fill="#47A2DF"/>
<path d="M545.268 630.544L509.975 695.066L483.93 695.238L483.94 696.664L510.823 696.487L546.518 631.228L545.268 630.544Z" fill="#47A2DF"/>
<path d="M528.446 639.832C526.814 640.755 526.238 642.826 527.162 644.46C528.084 646.092 530.155 646.666 531.787 645.744C533.42 644.82 533.996 642.749 533.072 641.119C532.15 639.485 530.079 638.909 528.446 639.832Z" fill="#47A2DF"/>
<path d="M544.223 627.931C542.589 628.852 542.015 630.925 542.937 632.557C543.859 634.19 545.93 634.766 547.562 633.842C549.196 632.92 549.772 630.849 548.85 629.216C547.926 627.584 545.855 627.008 544.223 627.931" fill="#47A2DF"/>
<path d="M491.487 637.16C489.853 638.084 489.279 640.155 490.2 641.788C491.123 643.42 493.194 643.995 494.826 643.073C496.46 642.149 497.034 640.078 496.113 638.448C495.19 636.814 493.119 636.238 491.487 637.16Z" fill="#47A2DF"/>
<path d="M422.442 754.244C420.81 755.167 420.235 757.239 421.158 758.87C422.079 760.503 424.15 761.079 425.783 760.155C427.415 759.233 427.991 757.162 427.069 755.529C426.147 753.897 424.076 753.322 422.442 754.244" fill="#47A2DF"/>
<path d="M391.655 795.54L494.968 620.345L493.74 619.62L390.427 794.816" fill="#47A2DF"/>
<path d="M424.727 757.561L493.77 640.48L492.543 639.756L423.499 756.837" fill="#47A2DF"/>
<path d="M376.785 857.829L480.097 682.633L478.87 681.909L375.558 857.104" fill="#47A2DF"/>
<path d="M381.236 871.509L484.549 696.313L483.321 695.589L380.009 870.785" fill="#47A2DF"/>
<path d="M635.732 459.158L659.514 420.876L645.212 394.931L643.963 395.62L657.863 420.834L634.521 458.407L635.732 459.158Z" fill="#47A2DF"/>
<path d="M633.132 478.749L672.383 415.565L659.311 392.075L658.065 392.769L670.731 415.527L631.922 477.996L633.132 478.749Z" fill="#47A2DF"/>
<path d="M631.731 458.783C631.731 456.907 633.252 455.388 635.126 455.388C637.002 455.388 638.523 456.907 638.523 458.783C638.523 460.657 637.002 462.178 635.126 462.178C633.252 462.178 631.731 460.657 631.731 458.783Z" fill="#47A2DF"/>
<path d="M629.133 478.373C629.133 476.497 630.652 474.978 632.528 474.978C634.402 474.978 635.923 476.497 635.923 478.373C635.923 480.248 634.402 481.768 632.528 481.768C630.652 481.768 629.133 480.248 629.133 478.373Z" fill="#47A2DF"/>
<path d="M611.221 427.919C611.221 426.045 612.742 424.524 614.616 424.524C616.493 424.524 618.012 426.045 618.012 427.919C618.012 429.795 616.493 431.315 614.616 431.315C612.742 431.315 611.221 429.795 611.221 427.919Z" fill="#47A2DF"/>
<path d="M679.183 310.205C679.183 308.331 680.704 306.81 682.578 306.81C684.454 306.81 685.975 308.331 685.975 310.205C685.975 312.081 684.454 313.602 682.578 313.602C680.704 313.602 679.183 312.081 679.183 310.205Z" fill="#47A2DF"/>
<path d="M695.975 262.727C695.975 260.853 697.496 259.332 699.37 259.332C701.246 259.332 702.765 260.853 702.765 262.727C702.765 264.603 701.246 266.123 699.37 266.123C697.496 266.123 695.975 264.603 695.975 262.727Z" fill="#47A2DF"/>
<path d="M698.753 262.371L597.06 438.512L598.294 439.225L699.987 263.084" fill="#47A2DF"/>
<path d="M681.961 309.849L613.999 427.563L615.233 428.275L683.196 310.562" fill="#47A2DF"/>
<path d="M745.665 218.78L643.97 394.92L645.205 395.632L746.899 219.493" fill="#47A2DF"/>
<path d="M759.766 215.925L658.071 392.065L659.306 392.777L761 216.638" fill="#47A2DF"/>
<path d="M515.508 390.062L536.735 351.255L565.524 350.951L565.51 349.526L535.886 349.839L514.258 389.378L515.508 390.062Z" fill="#47A2DF"/>
<path d="M499.734 401.964L535.025 337.443L561.069 337.271L561.06 335.845L534.177 336.023L498.484 401.281L499.734 401.964" fill="#47A2DF"/>
<path d="M516.554 392.676C518.186 391.754 518.762 389.683 517.84 388.051C516.916 386.419 514.845 385.843 513.213 386.765C511.58 387.688 511.005 389.759 511.927 391.392C512.851 393.024 514.922 393.6 516.554 392.676" fill="#47A2DF"/>
<path d="M500.779 404.578C502.411 403.656 502.987 401.585 502.063 399.953C501.141 398.319 499.07 397.743 497.436 398.667C495.806 399.589 495.23 401.66 496.152 403.292C497.074 404.926 499.147 405.501 500.779 404.578Z" fill="#47A2DF"/>
<path d="M424.704 458.343C426.338 457.42 426.912 455.348 425.989 453.716C425.068 452.084 422.997 451.508 421.363 452.43C419.731 453.352 419.156 455.425 420.078 457.057C421 458.69 423.072 459.265 424.704 458.343Z" fill="#47A2DF"/>
<path d="M553.514 395.349C555.148 394.425 555.722 392.354 554.8 390.722C553.877 389.09 551.806 388.514 550.174 389.436C548.542 390.359 547.966 392.43 548.888 394.063C549.811 395.695 551.882 396.271 553.514 395.349Z" fill="#47A2DF"/>
<path d="M622.559 278.265C624.19 277.343 624.765 275.272 623.843 273.64C622.919 272.006 620.848 271.43 619.216 272.354C617.584 273.276 617.009 275.347 617.931 276.979C618.854 278.613 620.925 279.187 622.559 278.265" fill="#47A2DF"/>
<path d="M655.631 240.288C657.263 239.365 657.839 237.294 656.915 235.662C655.994 234.028 653.921 233.454 652.29 234.376C650.657 235.298 650.081 237.369 651.004 239.003C651.926 240.635 653.997 241.211 655.631 240.288Z" fill="#47A2DF"/>
<path d="M653.346 236.97L550.034 412.165L551.261 412.889L654.573 237.694" fill="#47A2DF"/>
<path d="M620.274 274.947L551.231 392.031L552.458 392.755L621.501 275.671" fill="#47A2DF"/>
<path d="M668.217 174.682L564.903 349.876L566.131 350.6L669.444 175.406" fill="#47A2DF"/>
<path d="M663.764 161L560.45 336.196L561.679 336.92L664.991 161.724" fill="#47A2DF"/>
<path d="M518.089 515.677C518.061 515.677 518.029 515.676 518 515.675C517.97 515.676 517.938 515.677 517.91 515.677C510.339 515.677 503.669 513.761 499.727 517.38C497.364 519.552 496.369 522.169 496.369 524.986C496.369 536.755 505.799 538.2 517.909 538.2H518.089C530.199 538.2 539.628 536.754 539.628 524.986C539.628 522.167 538.633 519.552 536.271 517.38C532.329 513.761 525.659 515.677 518.089 515.677ZM507.793 531.76C505.489 531.76 503.621 529.172 503.621 525.981C503.621 522.79 505.489 520.204 507.793 520.204C510.097 520.204 511.967 522.79 511.967 525.981C511.967 529.172 510.097 531.76 507.793 531.76ZM528.206 531.76C525.901 531.76 524.031 529.172 524.031 525.981C524.031 522.79 525.901 520.204 528.206 520.204C530.509 520.204 532.378 522.79 532.378 525.981C532.378 529.172 530.51 531.76 528.206 531.76ZM518 455C484.309 455 457 482.31 457 516C457 549.69 484.309 577 518 577C551.689 577 579 549.69 579 516C579 482.31 551.689 455 518 455ZM523.564 541.037C522.471 541.037 520.298 541.039 518 541.042C515.701 541.039 513.527 541.037 512.435 541.037C507.602 541.037 488.463 540.667 488.463 517.596C488.463 512.288 490.283 508.404 493.261 505.17C492.785 503.997 492.761 497.335 495.297 490.958C495.297 490.958 501.112 491.596 509.911 497.634C511.755 497.124 514.878 496.87 518 496.87C521.12 496.87 524.242 497.123 526.089 497.634C534.887 491.596 540.701 490.958 540.701 490.958C543.236 497.335 543.213 503.997 542.738 505.17C545.717 508.404 547.537 512.289 547.537 517.596C547.537 540.667 528.397 541.037 523.564 541.037Z" fill="#EFEFEF"/>
<defs>
<filter id="filter0_f_57_144" x="0" y="0" width="1030" height="1030" filterUnits="userSpaceOnUse" color-interpolation-filters="sRGB">
<feFlood flood-opacity="0" result="BackgroundImageFix"/>
<feBlend mode="normal" in="SourceGraphic" in2="BackgroundImageFix" result="shape"/>
<feGaussianBlur stdDeviation="175" result="effect1_foregroundBlur_57_144"/>
</filter>
</defs>
</svg>
